<?xml version="1.0" encoding="UTF-8"?>
<!DOCTYPE svg PUBLIC "-//W3C//DTD SVG 1.1//EN" "http://www.w3.org/Graphics/SVG/1.1/DTD/svg11.dtd">
<!-- Creator: CorelDRAW X7 -->
<svg xmlns="http://www.w3.org/2000/svg" xml:space="preserve" width="129.582mm" height="27.6626mm" version="1.1" style="shape-rendering:geometricPrecision; text-rendering:geometricPrecision; image-rendering:optimizeQuality; fill-rule:evenodd; clip-rule:evenodd"
viewBox="0 0 14783 3156"
 xmlns:xlink="http://www.w3.org/1999/xlink">
 <defs>
  <style type="text/css">
   <![CDATA[
    .fil0 {fill:#D7251B}
   ]]>
  </style>
 </defs>
 <g id="Слой_x0020_1">
  <metadata id="CorelCorpID_0Corel-Layer"/>
  <path class="fil0" d="M11635 1597c-173,235 -1175,1164 -1512,1538 200,30 3029,26 3110,0 100,-34 1470,-1458 1550,-1574 -181,-207 -1428,-1487 -1560,-1523 -268,-72 -2607,-20 -3077,-20 135,223 1404,1362 1489,1579l0 0z"/>
  <path class="fil0" d="M6581 1597c-204,194 -1452,1415 -1512,1548l2891 3c359,0 326,-87 521,-290 145,-151 268,-282 414,-433 176,-183 739,-699 825,-864l-1463 -1460c-162,-137 -630,-74 -897,-75l-2276 -5c102,167 575,615 744,782 101,100 701,687 753,794l0 0z"/>
  <path class="fil0" d="M1540 1583l-1540 1547 2357 18c1022,0 703,91 1823,-1067 137,-142 373,-361 482,-520 -131,-205 -934,-941 -1165,-1176 -289,-293 -226,-354 -788,-358l-2690 -6 1521 1562 0 0z"/>
 </g>
</svg>
