<?xml version="1.0" encoding="UTF-8"?>
<!DOCTYPE svg PUBLIC "-//W3C//DTD SVG 1.1//EN" "http://www.w3.org/Graphics/SVG/1.1/DTD/svg11.dtd">
<!-- Creator: CorelDRAW X7 -->
<svg xmlns="http://www.w3.org/2000/svg" xml:space="preserve" width="32.2047mm" height="68.4189mm" version="1.1" style="shape-rendering:geometricPrecision; text-rendering:geometricPrecision; image-rendering:optimizeQuality; fill-rule:evenodd; clip-rule:evenodd"
viewBox="0 0 572 1215"
 xmlns:xlink="http://www.w3.org/1999/xlink">
 <defs>
  <style type="text/css">
   <![CDATA[
    .fil4 {fill:#080903}
    .fil6 {fill:#0D0E07}
    .fil0 {fill:#B0AFAF}
    .fil1 {fill:#C2C1C1}
    .fil5 {fill:#E7E9E7}
    .fil3 {fill:#F5F201}
    .fil2 {fill:#FDFDFD}
   ]]>
  </style>
 </defs>
 <g id="Слой_x0020_1">
  <metadata id="CorelCorpID_0Corel-Layer"/>
  <path class="fil0" d="M292 1215l35 0 0 -677c-2,-5 -8,-3 -16,-3 -6,0 -12,0 -18,0l0 426c0,14 -1,29 0,43 0,38 -1,86 0,126l-1 85z"/>
  <path class="fil1" d="M200 535c2,3 25,2 28,2 11,0 21,0 31,0l0 678 33 0 1 -85c-1,-40 0,-88 0,-126 -1,-14 0,-29 0,-43l0 -426c-7,0 -18,3 -23,-1 -4,2 -62,2 -70,1z"/>
  <path class="fil2" d="M464 277c-5,-15 -70,-75 -87,-92l-67 -67c-30,-31 -55,6 -79,30l-112 112c-31,31 3,53 31,81l89 89c21,21 33,39 56,33 13,-4 117,-113 136,-131 17,-16 40,-34 33,-55zm-186 278c-12,-8 -59,-57 -69,-67 -22,-22 -43,-44 -67,-68l-120 -118c-21,-22 -3,-29 27,-59l221 -221c6,-6 15,-13 25,-6l255 254c21,21 -1,31 -27,57 -11,12 -23,23 -34,34l-188 188c-6,6 -13,12 -23,6z"/>
  <path class="fil3" d="M275 454c-10,-5 -76,-71 -88,-84 -14,-14 -29,-29 -42,-43 -49,-48 -41,-42 12,-96l86 -86c48,-48 42,-43 98,13l106 106c8,8 15,18 9,32 -3,7 -124,126 -149,151 -7,7 -18,15 -32,7z"/>
  <path class="fil4" d="M278 555c10,6 17,0 23,-6l188 -188c11,-11 23,-22 34,-34 26,-26 48,-36 27,-57l-255 -254c-10,-7 -19,0 -25,6l-221 221c-30,30 -48,37 -27,59l120 118c24,24 45,46 67,68 10,10 57,59 69,67zm24 4l-33 0 -240 -241c-8,-8 -31,-23 -21,-44 4,-8 221,-221 256,-257 26,-26 40,-2 62,20l103 102c19,19 132,128 136,139 6,19 -15,32 -23,41l-240 240z"/>
  <path class="fil5" d="M309 559l-7 0 240 -240c8,-9 29,-22 23,-41 -4,-11 -117,-120 -136,-139l-103 -102c-22,-22 -36,-46 -62,-20 -35,36 -252,249 -256,257 -10,21 13,36 21,44l240 241 -7 0c-10,-8 -65,-68 -87,-87l-86 -86c-3,-4 -5,-6 -8,-9l-61 -61c-3,-3 -4,-5 -8,-9 -17,-13 -16,-32 1,-45l129 -129c22,-22 48,-46 69,-69l27 -26c3,-4 5,-6 9,-9 8,-8 16,-18 26,-25 10,-8 24,-2 32,5l35 35c2,2 2,2 4,3l128 128c1,1 1,2 2,2 3,4 5,4 8,8l18 17c11,11 22,25 35,35l17 17c6,7 12,11 16,19 9,19 0,24 -11,36 -3,3 -5,5 -8,8l-61 61c-2,2 -2,3 -4,5 -1,1 -2,2 -3,2 0,0 0,1 0,1l-45 45c0,1 -1,1 -1,1l-92 93c-9,8 -28,25 -34,34z"/>
  <path class="fil6" d="M275 454c14,8 25,0 32,-7 25,-25 146,-144 149,-151 6,-14 -1,-24 -9,-32l-106 -106c-56,-56 -50,-61 -98,-13l-86 86c-53,54 -61,48 -12,96 13,14 28,29 42,43 12,13 78,79 88,84zm189 -177c7,21 -16,39 -33,55 -19,18 -123,127 -136,131 -23,6 -35,-12 -56,-33l-89 -89c-28,-28 -62,-50 -31,-81l112 -112c24,-24 49,-61 79,-30l67 67c17,17 82,77 87,92z"/>
 </g>
</svg>
