<?xml version="1.0" encoding="UTF-8"?>
<!DOCTYPE svg PUBLIC "-//W3C//DTD SVG 1.1//EN" "http://www.w3.org/Graphics/SVG/1.1/DTD/svg11.dtd">
<!-- Creator: CorelDRAW X7 -->
<svg xmlns="http://www.w3.org/2000/svg" xml:space="preserve" width="33.1584mm" height="67.1515mm" version="1.1" style="shape-rendering:geometricPrecision; text-rendering:geometricPrecision; image-rendering:optimizeQuality; fill-rule:evenodd; clip-rule:evenodd"
viewBox="0 0 1736 3517"
 xmlns:xlink="http://www.w3.org/1999/xlink">
 <defs>
  <style type="text/css">
   <![CDATA[
    .fil4 {fill:black}
    .fil8 {fill:#020202}
    .fil5 {fill:#9CA5A2}
    .fil9 {fill:#B0AFAF}
    .fil0 {fill:#B42C1A}
    .fil10 {fill:#C2C1C1}
    .fil3 {fill:#F3F3ED}
    .fil7 {fill:#F6F6F5}
    .fil6 {fill:#F9F9F9}
    .fil2 {fill:#FDFDFB}
    .fil1 {fill:#FDFDFD}
   ]]>
  </style>
 </defs>
 <g id="Слой_x0020_1">
  <metadata id="CorelCorpID_0Corel-Layer"/>
  <path class="fil0" d="M448 929l108 -192c0,0 4,-5 5,-6 6,-7 0,-1 8,-7 0,-18 56,-105 68,-127l183 -317c52,-84 49,-84 123,48l130 227c11,18 62,97 62,115l61 98c20,33 41,67 59,100 19,35 40,69 59,103 16,29 50,79 58,106 1,0 1,0 2,1l112 193c66,119 88,115 -101,115l-1097 0c-54,0 -115,6 -73,-59l233 -398zm-325 576l1491 0c45,0 75,-24 85,-62 14,-45 -20,-82 -36,-109 -109,-180 -218,-382 -327,-569 -36,-60 -73,-122 -110,-189l-274 -473c-53,-92 -116,-91 -169,-2 -19,33 -37,66 -55,96l-329 571c-73,124 -145,248 -218,377 -37,64 -75,129 -109,189 -18,30 -49,65 -37,109 10,39 43,62 88,62z"/>
  <path class="fil1" d="M1372 1077c-18,-10 0,7 -15,-7l-6 4c-19,-1 -118,71 -144,79 -34,11 -42,-24 -57,-50l-32 -56c-6,-11 -4,-12 -12,-14 -25,-8 -14,-6 -22,-31 -16,-2 -93,45 -101,56 -27,50 27,212 -29,232 -35,13 -39,-12 -54,-23 -2,-1 -3,-5 -3,-5l-8 -23c-2,-13 6,-8 -4,-16 -87,-7 -73,29 -138,-89l-14 -20 -10 -6c-10,-7 3,-4 -17,-9 -32,4 -83,129 -120,177 -17,23 -58,22 -67,-6 -12,-34 36,-95 61,-138 14,-25 39,-76 60,-91 16,-11 20,-9 26,-23 -2,-12 -5,-12 -6,-22 -9,15 1,5 -15,6 -31,2 -65,51 -109,43 -25,-28 -41,-77 -65,-104l-23 -12 -233 398c-42,65 19,59 73,59l1097 0c189,0 167,4 101,-115l-112 -193c-1,-1 -1,-1 -2,-1z"/>
  <path class="fil2" d="M889 864c13,-11 41,-65 49,-81 17,7 5,-3 17,15 2,2 6,10 8,15 28,49 22,36 -11,94 -40,71 -33,68 -102,28 -26,-14 -39,-23 -61,-35 -19,-11 -46,-27 -31,-62 23,-52 102,21 131,26zm52 -317c48,-14 79,27 68,82 -8,35 -38,82 -70,88 -76,11 -120,-134 2,-170zm-372 177l7 8c17,-7 25,-21 52,-22 32,-2 39,16 50,22 8,5 4,-3 14,7l0 46c-10,-6 -4,0 5,-2 1,-1 2,-2 2,-2l8 -8c3,-5 6,-13 10,-18l57 -94c24,-21 57,-2 56,27 -1,14 -28,57 -36,71 -12,20 -26,44 -37,63 -13,23 -35,46 -22,71 18,35 70,98 68,141 -25,18 -78,42 -97,65 20,5 7,2 17,9l10 6 -1 -18c16,-8 45,-33 66,-34 50,78 25,82 85,83l2 78c10,8 2,3 4,16l8 23c0,0 1,4 3,5 -3,-40 -7,-216 -1,-248 6,-33 110,-65 140,-96 -11,-62 -106,-137 -76,-192 11,-20 25,-36 41,-50 10,-11 2,-5 18,-10 0,0 13,-1 14,-1l101 0c-5,6 -3,8 -2,0 0,-18 -51,-97 -62,-115l-130 -227c-74,-132 -71,-132 -123,-48l-183 317c-12,22 -68,109 -68,127z"/>
  <path class="fil3" d="M123 1505c-45,0 -78,-23 -88,-62 -12,-44 19,-79 37,-109 34,-60 72,-125 109,-189 73,-129 145,-253 218,-377l329 -571c18,-30 36,-63 55,-96 53,-89 116,-90 169,2l274 473c37,67 74,129 110,189 109,187 218,389 327,569 16,27 50,64 36,109 -10,38 -40,62 -85,62l-1491 0zm719 -1485c-33,13 -23,8 -42,28 -7,7 -7,5 -14,14 -16,17 -245,424 -267,463 -4,7 -6,9 -10,17l-72 130c-66,107 -137,242 -202,353 -13,22 -24,38 -37,60 -30,48 -83,148 -112,191 -14,20 -69,108 -73,129 -11,58 39,110 83,119 38,8 1268,2 1408,2 62,0 138,12 180,-25 42,-37 52,-81 18,-139 -24,-39 -53,-84 -76,-126l-312 -540c-7,-13 -12,-19 -20,-32 -85,-144 -170,-304 -255,-451 -25,-42 -53,-87 -75,-127 -17,-29 -20,-37 -45,-55 -23,-16 -49,-23 -77,-11z"/>
  <path class="fil4" d="M900 1267c15,11 19,36 54,23 56,-20 2,-182 29,-232 8,-11 85,-58 101,-56 12,-21 44,-27 66,-44 73,-53 -55,-148 -57,-204l75 -2c-2,-17 -31,-61 -40,-72l-124 1c-16,14 -30,30 -41,50 -30,55 65,130 76,192 -30,31 -134,63 -140,96 -6,32 -2,208 1,248z"/>
  <path class="fil5" d="M842 20c28,-12 54,-5 77,11 25,18 28,26 45,55 22,40 50,85 75,127 85,147 170,307 255,451 8,13 13,19 20,32l312 540c23,42 52,87 76,126 34,58 24,102 -18,139 -42,37 -118,25 -180,25 -140,0 -1370,6 -1408,-2 -44,-9 -94,-61 -83,-119 4,-21 59,-109 73,-129 29,-43 82,-143 112,-191 13,-22 24,-38 37,-60 65,-111 136,-246 202,-353l72 -130c4,-8 6,-10 10,-17 22,-39 251,-446 267,-463 7,-9 7,-7 14,-14 19,-20 9,-15 42,-28zm-4 -13c-58,22 -69,53 -99,105l-672 1168c-21,32 -65,93 -67,134 -2,60 39,111 86,121 42,8 1279,3 1423,2 59,0 147,12 182,-23 43,-41 61,-97 30,-147l-190 -320c-11,-21 -27,-43 -40,-66 -99,-179 -197,-343 -295,-520l-223 -388c-22,-37 -69,-92 -135,-66z"/>
  <path class="fil4" d="M697 783c-11,38 -50,81 -65,116 -20,45 64,106 34,119 -6,14 -10,12 -26,23 -21,15 -46,66 -60,91 -25,43 -73,104 -61,138 9,28 50,29 67,6 37,-48 88,-173 120,-177 19,-23 72,-47 97,-65 2,-43 -50,-106 -68,-141 -13,-25 9,-48 22,-71 11,-19 25,-43 37,-63 8,-14 35,-57 36,-71 1,-29 -32,-48 -56,-27l-57 94c-4,5 -7,13 -10,18l-8 8c0,0 -1,1 -2,2z"/>
  <path class="fil6" d="M1004 681l124 -1c9,11 38,55 40,72l-75 2c2,56 130,151 57,204 -22,17 -54,23 -66,44 8,25 -3,23 22,31l-7 -23c12,-13 47,-34 66,-38 22,22 28,54 50,78 38,-4 63,-42 102,-46 12,22 32,44 34,70l6 -4c15,14 -3,-3 15,7 -8,-27 -42,-77 -58,-106 -19,-34 -40,-68 -59,-103 -18,-33 -39,-67 -59,-100l-61 -98c-1,8 -3,6 2,0l-101 0c-1,0 -14,1 -14,1 -16,5 -8,-1 -18,10z"/>
  <path class="fil4" d="M1106 1033c8,2 6,3 12,14l32 56c15,26 23,61 57,50 26,-8 125,-80 144,-79 -2,-26 -22,-48 -34,-70 -39,4 -64,42 -102,46 -22,-24 -28,-56 -50,-78 -19,4 -54,25 -66,38l7 23z"/>
  <path class="fil4" d="M889 864c-29,-5 -108,-78 -131,-26 -15,35 12,51 31,62 22,12 35,21 61,35 69,40 62,43 102,-28 33,-58 39,-45 11,-94 -2,-5 -6,-13 -8,-15 -12,-18 0,-8 -17,-15 -8,16 -36,70 -49,81z"/>
  <path class="fil4" d="M941 547c-122,36 -78,181 -2,170 32,-6 62,-53 70,-88 11,-55 -20,-96 -68,-82z"/>
  <path class="fil7" d="M448 929l23 12c-2,-34 24,-110 91,20 30,-4 32,-19 57,-20 12,15 28,38 26,61 16,-1 6,9 15,-6 1,10 4,10 6,22 30,-13 -54,-74 -34,-119 15,-35 54,-78 65,-116 -9,2 -15,-4 -5,2l0 -46c-10,-10 -6,-2 -14,-7 8,45 7,51 -11,87 -46,92 -110,27 -117,-7 -7,-38 15,-57 26,-80l-7 -8c-8,6 -2,0 -8,7 -1,1 -5,6 -5,6l-108 192z"/>
  <path class="fil4" d="M576 732c-11,23 -33,42 -26,80 7,34 71,99 117,7 18,-36 19,-42 11,-87 -11,-6 -18,-24 -50,-22 -27,1 -35,15 -52,22z"/>
  <path class="fil8" d="M471 941c24,27 40,76 65,104 44,8 78,-41 109,-43 2,-23 -14,-46 -26,-61 -25,1 -27,16 -57,20 -67,-130 -93,-54 -91,-20z"/>
  <path class="fil4" d="M733 1114l14 20c65,118 51,82 138,89l-2 -78c-60,-1 -35,-5 -85,-83 -21,1 -50,26 -66,34l1 18z"/>
  <path class="fil9" d="M865 3517l102 0 0 -1996c-4,-14 -21,-8 -47,-8 -17,0 -35,0 -52,0l-1 1256c0,42 -1,85 -1,125 3,115 -2,255 0,372l-1 251z"/>
  <path class="fil10" d="M593 1512c7,9 74,5 84,5 31,0 61,0 91,0l0 2000 97 0 1 -251c-2,-117 3,-257 0,-372 0,-40 1,-83 1,-125l1 -1256c-20,0 -54,7 -69,-3 -11,6 -181,4 -206,2z"/>
 </g>
</svg>
