<?xml version="1.0" encoding="UTF-8"?>
<!DOCTYPE svg PUBLIC "-//W3C//DTD SVG 1.1//EN" "http://www.w3.org/Graphics/SVG/1.1/DTD/svg11.dtd">
<!-- Creator: CorelDRAW X7 -->
<svg xmlns="http://www.w3.org/2000/svg" xml:space="preserve" width="30.3864mm" height="68.1392mm" version="1.1" style="shape-rendering:geometricPrecision; text-rendering:geometricPrecision; image-rendering:optimizeQuality; fill-rule:evenodd; clip-rule:evenodd"
viewBox="0 0 5808 13024"
 xmlns:xlink="http://www.w3.org/1999/xlink">
 <defs>
  <style type="text/css">
   <![CDATA[
    .fil0 {fill:#2C98D9}
    .fil5 {fill:#B0AFAF}
    .fil4 {fill:#B6BAB7}
    .fil6 {fill:#C2C1C1}
    .fil1 {fill:#F9F9F9}
    .fil2 {fill:#FCFEFB}
    .fil3 {fill:#FDFDFD}
   ]]>
  </style>
 </defs>
 <g id="Слой_x0020_1">
  <metadata id="CorelCorpID_0Corel-Layer"/>
  <path class="fil0" d="M1418 4130c30,-52 254,-230 310,-278 75,-67 109,-54 181,24 244,259 613,423 1026,411 -21,-151 -214,-332 -231,-479l1683 1c-18,100 -348,636 -413,748 -63,109 -378,674 -427,726 -58,-31 -250,-415 -290,-476 -500,-11 -518,96 -1115,-128 -211,-79 -669,-400 -724,-549zm-383 -1897c44,-17 150,-288 255,-443 267,-396 821,-794 1279,-817 26,86 95,406 91,512 -46,28 -249,75 -326,109 -227,97 -632,410 -654,633l519 3c-1,43 -798,1432 -846,1477 -20,-17 -831,-1383 -842,-1474l524 0zm3048 -75c-57,82 -204,395 -268,436 -39,-30 -193,-306 -225,-364 -99,-178 -618,-1040 -622,-1109l1695 2c-11,109 -227,375 -262,496 2,61 729,756 338,1929 -78,-4 -452,-136 -503,-171 8,-160 116,-212 72,-687 -8,-88 -108,-417 -178,-498 -27,-32 -9,-23 -47,-34zm-1460 -1971c-733,106 -1319,373 -1785,933 -416,498 -740,1218 -636,2069 173,1427 1415,2552 2994,2398 1924,-188 3030,-2356 2087,-4013 -166,-291 -370,-556 -609,-749 -556,-450 -1289,-748 -2051,-638z"/>
  <path class="fil1" d="M2623 187c762,-110 1495,188 2051,638 239,193 443,458 609,749 943,1657 -163,3825 -2087,4013 -1579,154 -2821,-971 -2994,-2398 -104,-851 220,-1571 636,-2069 466,-560 1052,-827 1785,-933zm3129 2972c81,-329 -58,-966 -161,-1258 -61,-177 -144,-330 -234,-486l-142 -210c-58,-80 -90,-130 -155,-196 -146,-151 -186,-209 -368,-351 -133,-103 -248,-193 -418,-284 -699,-372 -1605,-478 -2350,-176 -346,140 -676,312 -894,529 -402,399 -652,656 -854,1286 -249,773 -152,1662 272,2337 50,81 84,136 138,213 52,73 99,136 156,195l278 274c443,405 984,618 1594,700 453,60 873,-33 1270,-163 490,-159 938,-511 1248,-891 241,-296 367,-564 496,-926 105,-293 76,-395 124,-593z"/>
  <path class="fil2" d="M3815 2594c64,-41 211,-354 268,-436 38,11 20,2 47,34 70,81 170,410 178,498 44,475 -64,527 -72,687 51,35 425,167 503,171 391,-1173 -336,-1868 -338,-1929 35,-121 251,-387 262,-496l-1695 -2c4,69 523,931 622,1109 32,58 186,334 225,364z"/>
  <path class="fil3" d="M1035 2233l-524 0c11,91 822,1457 842,1474 48,-45 845,-1434 846,-1477l-519 -3c22,-223 427,-536 654,-633 77,-34 280,-81 326,-109 4,-106 -65,-426 -91,-512 -458,23 -1012,421 -1279,817 -105,155 -211,426 -255,443z"/>
  <path class="fil2" d="M1418 4130c55,149 513,470 724,549 597,224 615,117 1115,128 40,61 232,445 290,476 49,-52 364,-617 427,-726 65,-112 395,-648 413,-748l-1683 -1c17,147 210,328 231,479 -413,12 -782,-152 -1026,-411 -72,-78 -106,-91 -181,-24 -56,48 -280,226 -310,278z"/>
  <path class="fil4" d="M5752 3159c-48,198 -19,300 -124,593 -129,362 -255,630 -496,926 -310,380 -758,732 -1248,891 -397,130 -817,223 -1270,163 -610,-82 -1151,-295 -1594,-700l-278 -274c-57,-59 -104,-122 -156,-195 -54,-77 -88,-132 -138,-213 -424,-675 -521,-1564 -272,-2337 202,-630 452,-887 854,-1286 218,-217 548,-389 894,-529 745,-302 1651,-196 2350,176 170,91 285,181 418,284 182,142 222,200 368,351 65,66 97,116 155,196l142 210c90,156 173,309 234,486 103,292 242,929 161,1258zm-3168 -3152c-642,33 -1171,343 -1622,718 -36,30 -66,49 -101,83 -309,314 -547,688 -698,1112 -338,949 -140,2069 503,2814 173,201 153,175 365,373 516,481 1455,759 2220,657 1159,-155 2004,-864 2398,-1927 342,-922 112,-2056 -503,-2796 -36,-43 -51,-63 -84,-101 -37,-43 -49,-52 -92,-92 -65,-59 -122,-120 -189,-179 -624,-553 -1349,-706 -2197,-662z"/>
  <path class="fil5" d="M3001 13024l373 0 -2 -7285c-14,-50 -76,-28 -169,-28 -64,0 -128,0 -192,0l-4 4586c1,152 -3,307 0,454 8,419 -9,932 0,1358l-6 915z"/>
  <path class="fil6" d="M2008 5707c26,35 272,17 309,17 110,0 221,0 332,0l0 7300 352 0 6 -915c-9,-426 8,-939 0,-1358 -3,-147 1,-302 0,-454l4 -4586c-71,0 -197,24 -251,-10 -39,21 -659,13 -752,6z"/>
 </g>
</svg>
