<?xml version="1.0" encoding="UTF-8"?>
<!DOCTYPE svg PUBLIC "-//W3C//DTD SVG 1.1//EN" "http://www.w3.org/Graphics/SVG/1.1/DTD/svg11.dtd">
<!-- Creator: CorelDRAW X7 -->
<svg xmlns="http://www.w3.org/2000/svg" xml:space="preserve" width="31.2499mm" height="68.7166mm" version="1.1" style="shape-rendering:geometricPrecision; text-rendering:geometricPrecision; image-rendering:optimizeQuality; fill-rule:evenodd; clip-rule:evenodd"
viewBox="0 0 2109 4637"
 xmlns:xlink="http://www.w3.org/1999/xlink">
 <defs>
  <style type="text/css">
   <![CDATA[
    .fil3 {fill:black}
    .fil0 {fill:#2C98D9}
    .fil4 {fill:#B0AFAF}
    .fil5 {fill:#C2C1C1}
    .fil2 {fill:#F9F9F9}
    .fil1 {fill:#FDFDFD}
   ]]>
  </style>
 </defs>
 <g id="Слой_x0020_1">
  <metadata id="CorelCorpID_0Corel-Layer"/>
  <path class="fil0" d="M1957 1708c-18,21 -161,11 -198,11l-1490 0c-160,0 -158,20 -26,-206 57,-98 101,-177 155,-270l465 -806c227,-395 164,-377 338,-82l311 540c50,86 104,179 155,269l233 407c28,52 83,112 57,137zm-1852 -1652c-70,37 -50,112 -50,201 0,271 -7,1722 6,1751 29,65 127,46 202,46 83,0 166,0 248,0 221,0 1457,9 1499,-8 66,-28 49,-113 49,-199 0,-272 7,-1715 -8,-1747 -31,-67 -121,-48 -197,-48 -261,0 -1734,-4 -1749,4z"/>
  <path class="fil1" d="M988 1497c5,-32 4,-28 38,-28l94 3c9,24 30,184 23,197 -11,12 -159,6 -174,5l19 -177zm-581 177c2,-25 110,-182 127,-205l138 0c0,22 -62,184 -74,205l-191 0zm1302 1l-192 0c-16,-28 -76,-179 -78,-206l142 2c19,29 125,188 128,204zm-629 -501c11,-22 71,-77 88,-92 20,18 186,312 221,373 21,36 69,90 18,135 -57,52 -95,-16 -117,-53l-210 -363zm-118 -346c3,141 12,119 -49,180 -40,40 -84,98 -128,63 -29,-23 -20,-57 4,-81 28,-28 140,-152 173,-162zm-218 733c-7,-26 9,-76 15,-104 16,-70 30,-131 47,-201 24,-96 32,-88 97,-152 89,-87 83,-65 83,-167l-2 -189c0,-83 5,-71 64,-107 58,-35 77,-31 131,1 239,137 200,72 200,354 0,34 -15,65 -57,59 -60,-7 -43,-111 -43,-201 0,-39 -5,-37 -31,-56 -21,-14 -30,-24 -58,-28 -1,312 26,223 -100,355 -45,47 -82,84 -125,124 -29,28 -33,29 -46,77 -25,91 -40,260 -97,277 -38,11 -70,-13 -78,-42zm275 -1141c137,-30 171,152 19,204 -128,43 -182,-167 -19,-204zm938 1288c26,-25 -29,-85 -57,-137l-233 -407c-51,-90 -105,-183 -155,-269l-311 -540c-174,-295 -111,-313 -338,82l-465 806c-54,93 -98,172 -155,270 -132,226 -134,206 26,206l1490 0c37,0 180,10 198,-11z"/>
  <path class="fil2" d="M105 56c15,-8 1488,-4 1749,-4 76,0 166,-19 197,48 15,32 8,1475 8,1747 0,86 17,171 -49,199 -42,17 -1278,8 -1499,8 -82,0 -165,0 -248,0 -75,0 -173,19 -202,-46 -13,-29 -6,-1480 -6,-1751 0,-89 -20,-164 50,-201zm1995 1957c15,-36 6,-1550 7,-1839 0,-63 -2,-139 -92,-167 -40,-12 -1407,-5 -1574,-5 -67,1 -324,-12 -374,18 -23,13 -46,36 -58,71 -16,51 -6,1614 -6,1839 0,65 3,141 92,168 44,12 1614,4 1835,4 96,0 138,-10 170,-89z"/>
  <path class="fil3" d="M984 748l2 189c0,102 6,80 -83,167 -65,64 -73,56 -97,152 -17,70 -31,131 -47,201 -6,28 -22,78 -15,104 8,29 40,53 78,42 57,-17 72,-186 97,-277 13,-48 17,-49 46,-77 43,-40 80,-77 125,-124 126,-132 99,-43 100,-355 28,4 37,14 58,28 26,19 31,17 31,56 0,90 -17,194 43,201 42,6 57,-25 57,-59 0,-282 39,-217 -200,-354 -54,-32 -73,-36 -131,-1 -59,36 -64,24 -64,107z"/>
  <path class="fil3" d="M1080 1174l210 363c22,37 60,105 117,53 51,-45 3,-99 -18,-135 -35,-61 -201,-355 -221,-373 -17,15 -77,70 -88,92z"/>
  <path class="fil3" d="M1019 420c-163,37 -109,247 19,204 152,-52 118,-234 -19,-204z"/>
  <path class="fil3" d="M407 1674l191 0c12,-21 74,-183 74,-205l-138 0c-17,23 -125,180 -127,205z"/>
  <path class="fil3" d="M1517 1675l192 0c-3,-16 -109,-175 -128,-204l-142 -2c2,27 62,178 78,206z"/>
  <path class="fil3" d="M969 1674c15,1 163,7 174,-5 7,-13 -14,-173 -23,-197l-94 -3c-34,0 -33,-4 -38,28l-19 177z"/>
  <path class="fil3" d="M962 828c-33,10 -145,134 -173,162 -24,24 -33,58 -4,81 44,35 88,-23 128,-63 61,-61 52,-39 49,-180z"/>
  <path class="fil4" d="M1096 4637l132 0 -1 -2572c-5,-17 -27,-10 -60,-10 -22,0 -45,0 -68,0l-1 1619c1,54 -1,109 0,161 3,148 -3,329 0,479l-2 323z"/>
  <path class="fil5" d="M745 2054c9,12 96,6 109,6 39,0 79,0 118,0l0 2577 124 0 2 -323c-3,-150 3,-331 0,-479 -1,-52 1,-107 0,-161l1 -1619c-25,0 -69,9 -88,-3 -14,7 -233,4 -266,2z"/>
 </g>
</svg>
