<?xml version="1.0" encoding="UTF-8"?>
<!DOCTYPE svg PUBLIC "-//W3C//DTD SVG 1.1//EN" "http://www.w3.org/Graphics/SVG/1.1/DTD/svg11.dtd">
<!-- Creator: CorelDRAW X7 -->
<svg xmlns="http://www.w3.org/2000/svg" xml:space="preserve" width="34.4084mm" height="68.3303mm" version="1.1" style="shape-rendering:geometricPrecision; text-rendering:geometricPrecision; image-rendering:optimizeQuality; fill-rule:evenodd; clip-rule:evenodd"
viewBox="0 0 960 1906"
 xmlns:xlink="http://www.w3.org/1999/xlink">
 <defs>
  <style type="text/css">
   <![CDATA[
    .fil6 {fill:#0D0E07}
    .fil7 {fill:#151505}
    .fil5 {fill:#168C2C}
    .fil3 {fill:#9CA5A2}
    .fil8 {fill:#A6AAA8}
    .fil9 {fill:#B0AFAF}
    .fil1 {fill:#B42C1A}
    .fil10 {fill:#C2C1C1}
    .fil2 {fill:#EEEEED}
    .fil4 {fill:#F5F201}
    .fil0 {fill:#FDFDFD}
   ]]>
  </style>
 </defs>
 <g id="Слой_x0020_1">
  <metadata id="CorelCorpID_0Corel-Layer"/>
  <path class="fil0" d="M461 586c95,-26 140,118 37,148 -59,18 -123,-53 -82,-117 11,-17 26,-26 45,-31zm44 -167c-1,11 -3,3 2,12 28,9 55,43 49,85 -5,35 -36,63 -75,63 -84,2 -109,-112 -28,-147 12,-11 15,-1 9,-11 -30,-4 -61,-39 -59,-80 3,-37 33,-69 73,-70 88,-4 114,115 29,148zm318 347c14,0 21,-1 25,-10 3,-9 -3,-13 -7,-20 -8,-13 -15,-26 -23,-40 -46,-76 -94,-167 -140,-242 -9,-14 -16,-28 -23,-42 -8,-14 -16,-26 -24,-40 -29,-53 -65,-108 -93,-162 -7,-14 -15,-26 -23,-40 -25,-45 -32,-68 -57,-22l-117 201c-15,27 -30,55 -46,82 -16,27 -29,53 -47,82 -28,46 -108,192 -128,222 -16,24 -7,31 19,31l684 0z"/>
  <path class="fil1" d="M823 766l-684 0c-26,0 -35,-7 -19,-31 20,-30 100,-176 128,-222 18,-29 31,-55 47,-82 16,-27 31,-55 46,-82l117 -201c25,-46 32,-23 57,22 8,14 16,26 23,40 28,54 64,109 93,162 8,14 16,26 24,40 7,14 14,28 23,42 46,75 94,166 140,242 8,14 15,27 23,40 4,7 10,11 7,20 -4,9 -11,10 -25,10zm-745 66l816 0c25,0 41,-15 46,-35 7,-26 -13,-43 -22,-60l-182 -317c-41,-70 -78,-139 -120,-209 -20,-34 -40,-69 -61,-105 -9,-17 -20,-36 -30,-53 -29,-49 -67,-42 -93,6 -27,51 -61,103 -91,158 -73,134 -165,283 -242,420 -20,36 -40,71 -61,106 -10,16 -27,36 -15,61 10,22 25,28 55,28z"/>
  <path class="fil2" d="M78 832c-30,0 -45,-6 -55,-28 -12,-25 5,-45 15,-61 21,-35 41,-70 61,-106 77,-137 169,-286 242,-420 30,-55 64,-107 91,-158 26,-48 64,-55 93,-6 10,17 21,36 30,53 21,36 41,71 61,105 42,70 79,139 120,209l182 317c9,17 29,34 22,60 -5,20 -21,35 -46,35l-816 0zm-69 -34c4,25 32,46 64,46 256,2 523,0 780,0 43,0 66,3 88,-24 8,-10 13,-27 10,-44 -2,-18 -86,-147 -102,-176 -23,-44 -57,-96 -81,-141l-223 -393c-6,-10 -14,-25 -20,-33 -15,-19 -44,-38 -74,-16 -12,9 -16,18 -25,31 -28,44 -160,280 -182,319l-184 318c-6,11 -13,25 -21,35 -8,11 -12,23 -21,35 -8,12 -12,24 -9,43z"/>
  <path class="fil3" d="M9 798c-3,-19 1,-31 9,-43 9,-12 13,-24 21,-35 8,-10 15,-24 21,-35l184 -318c22,-39 154,-275 182,-319 9,-13 13,-22 25,-31 30,-22 59,-3 74,16 6,8 14,23 20,33l223 393c24,45 58,97 81,141 16,29 100,158 102,176 3,17 -2,34 -10,44 -22,27 -45,24 -88,24 -257,0 -524,2 -780,0 -32,0 -60,-21 -64,-46zm948 5c11,-32 -16,-64 -28,-84 -14,-24 -28,-46 -42,-70 -36,-65 -90,-150 -123,-214 -14,-25 -29,-48 -41,-72 -25,-46 -58,-99 -81,-143 -25,-46 -58,-99 -83,-145 -13,-23 -25,-51 -48,-65 -31,-22 -62,-4 -79,15 -11,12 -305,532 -329,573l-84 141c-11,21 -33,47 -6,84 23,31 41,27 87,26l789 1c39,-1 57,-15 68,-47z"/>
  <path class="fil4" d="M414 514c6,34 37,60 79,54 82,-12 66,-146 -26,-130 -29,5 -60,37 -53,76z"/>
  <path class="fil1" d="M414 358c6,31 37,61 77,55 81,-13 73,-142 -22,-131 -31,3 -62,38 -55,76z"/>
  <path class="fil5" d="M469 595c-21,6 -30,10 -41,24 -37,46 1,116 65,106 33,-5 60,-41 53,-78 -6,-31 -41,-62 -77,-52z"/>
  <path class="fil6" d="M469 595c36,-10 71,21 77,52 7,37 -20,73 -53,78 -64,10 -102,-60 -65,-106 11,-14 20,-18 41,-24zm-8 -9c-19,5 -34,14 -45,31 -41,64 23,135 82,117 103,-30 58,-174 -37,-148z"/>
  <path class="fil7" d="M414 358c-7,-38 24,-73 55,-76 95,-11 103,118 22,131 -40,6 -71,-24 -77,-55zm48 63c19,1 23,1 43,-2 85,-33 59,-152 -29,-148 -40,1 -70,33 -73,70 -2,41 29,76 59,80z"/>
  <path class="fil7" d="M414 514c-7,-39 24,-71 53,-76 92,-16 108,118 26,130 -42,6 -73,-20 -79,-54zm39 -82c-81,35 -56,149 28,147 39,0 70,-28 75,-63 6,-42 -21,-76 -49,-85 -26,-3 -28,-3 -54,1z"/>
  <path class="fil8" d="M453 432c26,-4 28,-4 54,-1 -5,-9 -3,-1 -2,-12 -20,3 -24,3 -43,2 6,10 3,0 -9,11z"/>
  <path class="fil9" d="M471 1906l54 0 0 -1063c-2,-7 -11,-4 -25,-4 -9,0 -18,0 -28,0l0 669c0,22 -1,45 0,66 1,61 -2,136 0,199l-1 133z"/>
  <path class="fil10" d="M326 838c4,5 40,3 45,3 16,0 32,0 49,0l0 1065 51 0 1 -133c-2,-63 1,-138 0,-199 -1,-21 0,-44 0,-66l0 -669c-10,0 -28,3 -36,-2 -6,3 -96,2 -110,1z"/>
 </g>
</svg>
