<?xml version="1.0" encoding="UTF-8"?>
<!DOCTYPE svg PUBLIC "-//W3C//DTD SVG 1.1//EN" "http://www.w3.org/Graphics/SVG/1.1/DTD/svg11.dtd">
<!-- Creator: CorelDRAW X7 -->
<svg xmlns="http://www.w3.org/2000/svg" xml:space="preserve" width="31.3144mm" height="65.9907mm" version="1.1" style="shape-rendering:geometricPrecision; text-rendering:geometricPrecision; image-rendering:optimizeQuality; fill-rule:evenodd; clip-rule:evenodd"
viewBox="0 0 602 1268"
 xmlns:xlink="http://www.w3.org/1999/xlink">
 <defs>
  <style type="text/css">
   <![CDATA[
    .fil4 {fill:black}
    .fil8 {fill:#939493}
    .fil0 {fill:#B0AFAF}
    .fil3 {fill:#B42C1A}
    .fil6 {fill:#B6BAB7}
    .fil1 {fill:#C2C1C1}
    .fil5 {fill:#F3F3ED}
    .fil2 {fill:#FDFDFD}
    .fil7 {fill:#FEFDF9}
   ]]>
  </style>
 </defs>
 <g id="Слой_x0020_1">
  <metadata id="CorelCorpID_0Corel-Layer"/>
  <path class="fil0" d="M294 1268l37 0 0 -732c-1,-5 -7,-3 -17,-3 -6,0 -13,0 -19,0l-1 461c1,15 0,31 0,45 1,42 0,94 0,137l0 92z"/>
  <path class="fil1" d="M194 532c3,4 27,2 31,2 11,0 22,0 33,0l0 734 36 0 0 -92c0,-43 1,-95 0,-137 0,-14 1,-30 0,-45l1 -461c-7,0 -20,2 -25,-1 -4,2 -67,1 -76,0z"/>
  <path class="fil2" d="M138 358c0,18 4,40 -18,39 -19,0 -16,-21 -15,-39l33 0zm129 1c0,17 4,39 -17,38 -20,0 -16,-22 -16,-39l33 1zm233 -5c-2,7 -1,10 -1,17 0,2 0,7 0,9 -1,6 0,3 -2,5 -3,15 -25,18 -31,3 -6,-5 -4,-24 -2,-31l-95 0c1,6 1,11 1,17 0,20 0,13 -4,16 -8,10 -24,11 -29,-2 -3,-2 -2,2 -4,-7l1 -25c-6,-1 -1,0 -3,-3 -9,-2 -7,-10 -7,-21 0,-9 -1,-19 0,-28 0,-17 5,-11 11,-18 10,-10 10,-56 28,-57l111 1c9,3 16,39 21,51 2,6 1,5 6,8 12,8 8,15 8,49 0,10 -1,14 -9,16zm-388 1c-24,0 -19,-12 -19,-34 0,-48 5,-21 13,-38 5,-10 8,-24 13,-38 8,-21 9,-16 35,-16l76 0c10,0 15,-1 19,7 5,10 9,26 13,37 10,33 16,5 16,34 0,39 6,48 -20,48l-146 0zm-50 -39c6,70 38,121 79,159 18,17 47,36 73,46 34,13 61,18 103,16 65,-2 127,-40 161,-78 38,-43 65,-99 61,-175 -5,-122 -119,-235 -255,-223 -69,7 -122,35 -161,79 -35,40 -67,102 -61,176z"/>
  <path class="fil3" d="M62 316c-6,-74 26,-136 61,-176 39,-44 92,-72 161,-79 136,-12 250,101 255,223 4,76 -23,132 -61,175 -34,38 -96,76 -161,78 -42,2 -69,-3 -103,-16 -26,-10 -55,-29 -73,-46 -41,-38 -73,-89 -79,-159zm204 -305c-44,8 -76,16 -109,37 -36,22 -56,38 -79,65 -42,49 -78,134 -65,222 20,148 149,271 325,251 82,-10 145,-53 187,-103 101,-120 87,-299 -39,-407 -46,-40 -137,-79 -220,-65z"/>
  <path class="fil3" d="M117 288c1,-7 12,-40 14,-44 5,-7 44,-4 55,-4 14,0 50,-3 54,4 3,4 14,38 14,45l-137 -1zm-5 67l146 0c26,0 20,-9 20,-48 0,-29 -6,-1 -16,-34 -4,-11 -8,-27 -13,-37 -4,-8 -9,-7 -19,-7l-76 0c-26,0 -27,-5 -35,16 -5,14 -8,28 -13,38 -8,17 -13,-10 -13,38 0,22 -5,34 19,34z"/>
  <path class="fil4" d="M348 288c0,-5 6,-24 8,-30 4,-12 3,-18 19,-18l63 0c36,0 31,-2 38,20 3,8 8,21 8,28l-136 0zm-17 65c15,4 65,1 84,1 28,0 57,1 85,0 8,-2 9,-6 9,-16 0,-34 4,-41 -8,-49 -5,-3 -4,-2 -6,-8 -5,-12 -12,-48 -21,-51l-111 -1c-18,1 -18,47 -28,57 -6,7 -11,1 -11,18 -1,9 0,19 0,28 0,11 -2,19 7,21z"/>
  <path class="fil5" d="M266 11c83,-14 174,25 220,65 126,108 140,287 39,407 -42,50 -105,93 -187,103 -176,20 -305,-103 -325,-251 -13,-88 23,-173 65,-222 23,-27 43,-43 79,-65 33,-21 65,-29 109,-37zm7 -8c-46,8 -76,14 -114,35 -35,20 -61,41 -82,66 -23,28 -42,56 -55,93 -13,37 -23,88 -17,130 6,43 14,76 35,113 35,63 88,112 158,137 91,32 175,23 257,-24 26,-15 50,-38 70,-60 13,-14 15,-20 24,-32 35,-49 56,-130 48,-190 -8,-62 -27,-111 -64,-157l-22 -25c-30,-29 -66,-53 -107,-68 -19,-7 -38,-13 -59,-16 -18,-2 -55,-5 -72,-2z"/>
  <path class="fil6" d="M273 3c17,-3 54,0 72,2 21,3 40,9 59,16 41,15 77,39 107,68l22 25c37,46 56,95 64,157 8,60 -13,141 -48,190 -9,12 -11,18 -24,32 -20,22 -44,45 -70,60 -82,47 -166,56 -257,24 -70,-25 -123,-74 -158,-137 -21,-37 -29,-70 -35,-113 -6,-42 4,-93 17,-130 13,-37 32,-65 55,-93 21,-25 47,-46 82,-66 38,-21 68,-27 114,-35zm-273 294c0,79 32,161 87,214 58,56 126,88 212,88 96,0 165,-38 214,-86 49,-49 88,-119 89,-211 0,-47 -8,-87 -25,-125l-13 -24c-4,-9 -9,-15 -14,-23 -9,-14 -23,-31 -34,-42 -14,-13 -23,-22 -40,-34 -53,-36 -102,-54 -172,-54 -54,0 -82,5 -126,24 -67,30 -121,84 -151,150 -17,37 -27,77 -27,123z"/>
  <path class="fil7" d="M117 288l137 1c0,-7 -11,-41 -14,-45 -4,-7 -40,-4 -54,-4 -11,0 -50,-3 -55,4 -2,4 -13,37 -14,44z"/>
  <path class="fil2" d="M348 288l136 0c0,-7 -5,-20 -8,-28 -7,-22 -2,-20 -38,-20l-63 0c-16,0 -15,6 -19,18 -2,6 -8,25 -8,30z"/>
  <path class="fil3" d="M138 358l-33 0c-1,18 -4,39 15,39 22,1 18,-21 18,-39z"/>
  <path class="fil3" d="M267 359l-33 -1c0,17 -4,39 16,39 21,1 17,-21 17,-38z"/>
  <path class="fil4" d="M337 388c5,13 21,12 29,2l1 -31 -32 0c0,10 -1,19 2,29z"/>
  <path class="fil4" d="M466 388c6,15 28,12 31,-3l0 -26 -32 0 1 29z"/>
  <path class="fil8" d="M337 388c-3,-10 -2,-19 -2,-29l32 0 -1 31c4,-3 4,4 4,-16 0,-6 0,-11 -1,-17l95 0c-2,7 -4,26 2,31l-1 -29 32 0 0 26c2,-2 1,1 2,-5 0,-2 0,-7 0,-9 0,-7 -1,-10 1,-17 -28,1 -57,0 -85,0 -19,0 -69,3 -84,-1 2,3 -3,2 3,3l-1 25c2,9 1,5 4,7z"/>
 </g>
</svg>
