<?xml version="1.0" encoding="UTF-8"?>
<!DOCTYPE svg PUBLIC "-//W3C//DTD SVG 1.1//EN" "http://www.w3.org/Graphics/SVG/1.1/DTD/svg11.dtd">
<!-- Creator: CorelDRAW X7 -->
<svg xmlns="http://www.w3.org/2000/svg" xml:space="preserve" width="32.2621mm" height="72.8588mm" version="1.1" style="shape-rendering:geometricPrecision; text-rendering:geometricPrecision; image-rendering:optimizeQuality; fill-rule:evenodd; clip-rule:evenodd"
viewBox="0 0 499 1128"
 xmlns:xlink="http://www.w3.org/1999/xlink">
 <defs>
  <style type="text/css">
   <![CDATA[
    .fil1 {fill:#1C1C1E}
    .fil2 {fill:#B0AFAF}
    .fil3 {fill:#C2C1C1}
    .fil10 {fill:#E6E6E6}
    .fil0 {fill:#E9C620}
    .fil12 {fill:#ECECEC}
    .fil6 {fill:#EDEDED}
    .fil4 {fill:#EFEFEF}
    .fil11 {fill:#F1F1F1}
    .fil8 {fill:#F4F4F4}
    .fil9 {fill:#F6F6F6}
    .fil13 {fill:#F9F9F9}
    .fil7 {fill:#FAFAFA}
    .fil5 {fill:white}
   ]]>
  </style>
 </defs>
 <g id="Слой_x0020_1">
  <metadata id="CorelCorpID_0Corel-Layer"/>
  <g id="_788847856">
   <path class="fil0" d="M284 161c3,1 6,3 9,5 3,1 5,3 8,5 5,3 11,6 17,10 11,6 22,12 33,19 11,7 22,13 34,20l33 19c-1,3 -6,5 -8,6l-126 74 0 -43c-10,-3 -143,1 -158,-1l1 -71 157 0 0 -43zm-39 -137c-9,2 -13,8 -24,17 -2,2 -4,5 -6,7 -9,7 -20,19 -29,26l-42 40c-2,3 -5,4 -8,7 -2,2 -4,4 -7,7 -13,11 -28,26 -42,39l-35 33c-3,2 -5,4 -7,7l-15 13c-4,4 -8,11 -6,20 1,8 7,12 11,15 3,3 4,4 7,7 2,3 5,4 8,7 2,2 3,4 6,6 3,2 5,4 8,7l42 40c5,3 10,9 14,13 4,3 4,3 7,7 2,2 5,4 8,6 2,2 4,5 6,7l64 59c3,2 4,4 7,7l22 20c19,18 33,-3 43,-12 3,-2 4,-3 7,-6 2,-3 5,-4 7,-6l22 -21c7,-5 15,-14 21,-19 2,-3 5,-4 7,-7l71 -66c3,-2 4,-4 7,-7 2,-2 5,-4 7,-6 3,-3 4,-5 7,-7 10,-8 26,-24 36,-33 4,-5 8,-11 6,-21 -2,-7 -7,-11 -11,-15l-15 -13c-2,-2 -4,-5 -6,-7l-79 -73c-3,-2 -4,-4 -7,-6 -2,-3 -5,-4 -7,-7l-35 -33c-3,-2 -5,-5 -7,-7 -11,-8 -26,-23 -36,-33 -2,-2 -5,-4 -7,-6 -5,-5 -10,-9 -20,-6z"/>
   <path class="fil1" d="M284 204l-157 0 -1 71c15,2 148,-2 158,1l0 43 126 -74c2,-1 7,-3 8,-6l-33 -19c-12,-7 -23,-13 -34,-20 -11,-7 -22,-13 -33,-19 -6,-4 -12,-7 -17,-10 -3,-2 -5,-4 -8,-5 -3,-2 -6,-4 -9,-5l0 43z"/>
   <path class="fil0" d="M243 12c8,-1 17,0 23,4 4,2 6,4 8,7l23 21c7,5 15,14 22,21 2,2 5,4 8,6 3,3 4,5 7,8 6,4 8,7 15,13 3,3 4,5 7,7 3,3 5,4 8,7l37 35c8,8 15,13 23,21 2,2 4,5 7,7 5,4 10,9 15,14l22 21c9,7 15,13 18,24 3,9 0,18 -4,24 -2,5 -9,11 -13,15 -3,3 -6,4 -8,7l-75 70c-3,3 -4,4 -7,6l-37 35c-4,3 -5,5 -8,8l-15 13c-5,5 -10,10 -15,14l-15 14c-10,10 -20,21 -32,25 -22,5 -34,-13 -48,-25 -3,-3 -4,-5 -7,-7 -3,-3 -5,-4 -8,-7 -5,-6 -8,-7 -14,-14 -3,-3 -5,-4 -8,-7 -3,-3 -4,-4 -8,-7 -6,-5 -8,-8 -14,-14 -3,-2 -4,-4 -7,-7 -3,-2 -6,-4 -8,-7 -3,-2 -4,-4 -7,-6 -8,-7 -16,-16 -23,-22 -2,-2 -5,-4 -7,-6l-53 -50c-2,-2 -5,-4 -7,-6 -3,-2 -5,-5 -8,-7 -2,-3 -4,-4 -7,-7 -5,-6 -8,-9 -10,-18 -2,-8 0,-18 4,-24 3,-5 15,-16 21,-21 3,-2 5,-5 7,-7 3,-3 6,-5 8,-7 7,-8 33,-30 37,-35 4,-4 9,-8 15,-14 3,-3 5,-4 8,-7 3,-2 4,-4 7,-7 3,-2 5,-4 7,-7 3,-3 5,-4 8,-7l38 -35c2,-2 4,-4 7,-7 2,-2 5,-4 7,-6l23 -21c11,-9 18,-22 33,-25zm-13 -9c-3,0 -1,0 -4,1 -3,2 0,0 -2,3l-5 3c-2,2 -2,2 -4,3l-2 2 -2 1 -1 2 -2 2c-2,3 -6,5 -9,8 -3,3 -5,6 -9,8l-1 1 -2 2 -2 2 -1 1c-2,2 -2,3 -4,4 -2,2 -10,10 -13,11l-1 2 -2 1 -1 2 -2 2 -2 1c-1,2 -2,3 -4,4 -1,2 -9,10 -12,11l-2 2 -1 1 -2 2 -2 1 -1 2c-2,2 -2,2 -4,3 -3,4 -9,9 -12,12 -3,3 -9,10 -13,11 -2,4 -8,8 -12,12 -3,3 -8,9 -12,11 -2,4 -8,8 -12,12 -3,2 -9,9 -13,11 -2,3 -26,25 -32,30 -2,3 -4,4 -6,6 -9,9 -7,8 -11,13 -3,2 -2,0 -2,4l-2 3c-4,8 -4,13 -4,23 1,3 2,5 2,8 1,2 3,8 4,11l0 1 2 2c0,4 -1,1 1,3 2,1 1,1 2,2 4,4 11,10 14,14l1 1 1 1 10 10c3,1 10,9 12,11l1 0 1 2 10 10c4,1 11,8 13,11l0 0 2 2 10 10c3,1 10,9 12,11l1 0 1 2 10 9c3,2 11,9 13,12l0 0 2 1 10 10c3,2 10,9 12,12l1 0 1 1 10 10c3,1 11,9 12,11l1 1 2 1 10 10c3,1 11,9 12,11l1 0 1 2 10 10 9 8 1 0 1 1c1,2 0,1 1,1 3,1 4,2 6,3 3,1 4,2 7,3 5,2 8,2 16,2 22,0 27,-8 32,-9l1 -1 1 -2c3,-2 12,-12 15,-13l10 -10 1 -1 1 0c2,-3 9,-10 12,-12l9 -8 1 -1c3,-3 11,-11 14,-13l9 -9 2 -1c2,-3 11,-12 14,-13l10 -10 2 -2 0 0c2,-3 9,-10 13,-11l10 -10 1 -1 1 -1c2,-2 3,-4 5,-6 2,-1 4,-3 6,-4l9 -9 2 -2c2,-2 11,-11 14,-12l11 -11 1 -1 1 0c1,-3 9,-10 12,-12l10 -9 1 -2 1 0 4 -4 1 -1 1 -2 2 -1 1 -3 0 0c1,-1 1,-2 2,-3l2 -2c0,-1 0,-1 1,-2 0,-2 0,0 0,-2 1,-5 2,-8 3,-13 0,-3 0,-6 0,-8 0,-3 0,-13 -3,-16 -3,-3 -4,-9 -10,-16 -4,-4 -9,-8 -12,-12 -4,-2 -9,-8 -12,-11 -4,-3 -10,-8 -12,-12 -5,-2 -9,-8 -13,-11 -4,-3 -9,-7 -12,-12 -4,-1 -9,-8 -12,-11 -4,-3 -10,-7 -12,-11 -4,-2 -9,-8 -13,-12 -4,-3 -9,-7 -12,-11 -2,-1 -3,-2 -4,-4l-1 -1 -2 -2 -2 -1 -1 -2 -2 -2c-3,-1 -11,-9 -12,-11l-4 -3 -2 -2 -2 -2 -1 -1 -2 -2 -1 -1 -13 -12 -4 -3 -1 -2 -2 -1 -2 -2 -1 -2 -2 -1c-3,-2 -10,-9 -12,-12l-4 -3 -2 -2 -1 -1 -2 -2 -2 -1 -1 -2c-3,-1 -6,-5 -9,-7 -2,-2 -7,-5 -8,-6l-4 -2c-1,0 -1,0 -2,-1 0,0 -2,0 -3,0l-8 -2 -13 0c-1,0 -11,3 -13,3z"/>
   <path class="fil0" d="M33 616c0,11 -2,33 1,41 0,4 0,2 1,4l2 3 2 2 3 2c3,2 1,1 6,3 0,0 0,0 0,0 6,2 48,1 56,1 12,0 3,-2 14,-2 10,0 46,-1 50,1 2,-3 5,-6 7,-9l98 -131 -25 1 -33 -1 -92 123c-3,4 -10,12 -12,17l-61 0c4,-6 9,-12 13,-18l91 -121 -58 -1 -47 64c-4,6 -12,17 -16,21z"/>
   <path class="fil1" d="M245 24c10,-3 15,1 20,6 2,2 5,4 7,6 10,10 25,25 36,33 2,2 4,5 7,7l35 33c2,3 5,4 7,7 3,2 4,4 7,6l79 73c2,2 4,5 6,7l15 13c4,4 9,8 11,15 2,10 -2,16 -6,21 -10,9 -26,25 -36,33 -3,2 -4,4 -7,7 -2,2 -5,4 -7,6 -3,3 -4,5 -7,7l-71 66c-2,3 -5,4 -7,7 -6,5 -14,14 -21,19l-22 21c-2,2 -5,3 -7,6 -3,3 -4,4 -7,6 -10,9 -24,30 -43,12l-22 -20c-3,-3 -4,-5 -7,-7l-64 -59c-2,-2 -4,-5 -6,-7 -3,-2 -6,-4 -8,-6 -3,-4 -3,-4 -7,-7 -4,-4 -9,-10 -14,-13l-42 -40c-3,-3 -5,-5 -8,-7 -3,-2 -4,-4 -6,-6 -3,-3 -6,-4 -8,-7 -3,-3 -4,-4 -7,-7 -4,-3 -10,-7 -11,-15 -2,-9 2,-16 6,-20l15 -13c2,-3 4,-5 7,-7l35 -33c14,-13 29,-28 42,-39 3,-3 5,-5 7,-7 3,-3 6,-4 8,-7l42 -40c9,-7 20,-19 29,-26 2,-2 4,-5 6,-7 11,-9 15,-15 24,-17zm-2 -12c-15,3 -22,16 -33,25l-23 21c-2,2 -5,4 -7,6 -3,3 -5,5 -7,7l-38 35c-3,3 -5,4 -8,7 -2,3 -4,5 -7,7 -3,3 -4,5 -7,7 -3,3 -5,4 -8,7 -6,6 -11,10 -15,14 -4,5 -30,27 -37,35 -2,2 -5,4 -8,7 -2,2 -4,5 -7,7 -6,5 -18,16 -21,21 -4,6 -6,16 -4,24 2,9 5,12 10,18 3,3 5,4 7,7 3,2 5,5 8,7 2,2 5,4 7,6l53 50c2,2 5,4 7,6 7,6 15,15 23,22 3,2 4,4 7,6 2,3 5,5 8,7 3,3 4,5 7,7 6,6 8,9 14,14 4,3 5,4 8,7 3,3 5,4 8,7 6,7 9,8 14,14 3,3 5,4 8,7 3,2 4,4 7,7 14,12 26,30 48,25 12,-4 22,-15 32,-25l15 -14c5,-4 10,-9 15,-14l15 -13c3,-3 4,-5 8,-8l37 -35c3,-2 4,-3 7,-6l75 -70c2,-3 5,-4 8,-7 4,-4 11,-10 13,-15 4,-6 7,-15 4,-24 -3,-11 -9,-17 -18,-24l-22 -21c-5,-5 -10,-10 -15,-14 -3,-2 -5,-5 -7,-7 -8,-8 -15,-13 -23,-21l-37 -35c-3,-3 -5,-4 -8,-7 -3,-2 -4,-4 -7,-7 -7,-6 -9,-9 -15,-13 -3,-3 -4,-5 -7,-8 -3,-2 -6,-4 -8,-6 -7,-7 -15,-16 -22,-21l-23 -21c-2,-3 -4,-5 -8,-7 -6,-4 -15,-5 -23,-4z"/>
   <path class="fil0" d="M229 670c5,0 51,-1 55,1 6,1 2,1 11,1l44 0c2,0 5,0 6,0 6,-1 -2,-2 16,-2 9,0 38,-1 44,1 1,-3 5,-8 8,-11l23 -31c4,-5 28,-38 31,-40l-1 -43c0,-2 0,-3 -2,-4 -2,-2 -3,-4 -5,-5 -1,-2 -1,-2 -3,-3l-2 -2 -1 0 -3 0c-1,3 -4,6 -6,9 -29,40 -61,82 -91,122 -2,2 -5,5 -6,8l-60 0 52 -70c9,-12 17,-23 26,-35l20 -26c1,-2 4,-6 6,-8l-58 -1c-2,3 -5,7 -7,9l-58 78c-5,6 -9,12 -13,17 -3,4 -24,32 -26,35z"/>
   <path class="fil2" d="M249 1128l30 0 0 -455c-1,-3 -6,-2 -14,-2 -5,0 -10,0 -15,0l-1 286c0,10 0,19 0,29 1,26 0,58 0,84l0 58z"/>
   <path class="fil3" d="M168 671c3,2 23,1 25,1 9,0 18,0 27,0l0 456 29 0 0 -58c0,-26 1,-58 0,-84 0,-10 0,-19 0,-29l1 -286c-6,0 -16,1 -21,-1 -3,2 -53,1 -61,1z"/>
   <path class="fil1" d="M450 532c-4,-1 -53,-1 -59,0 -2,2 -5,6 -6,8l-20 26c-9,12 -17,23 -26,35l-52 70 60 0c1,-3 4,-6 6,-8 30,-40 62,-82 91,-122 2,-3 5,-6 6,-9z"/>
   <path class="fil1" d="M273 531l-98 131c-2,3 -5,6 -7,9 8,0 58,1 61,-1 2,-3 23,-31 26,-35 4,-5 8,-11 13,-17l58 -78c2,-2 5,-6 7,-9l-60 0z"/>
   <path class="fil1" d="M215 531l-61 1 -91 121c-4,6 -9,12 -13,18l61 0c2,-5 9,-13 12,-17l92 -123z"/>
   <path class="fil1" d="M40 536c-1,0 0,-1 -2,1 -1,2 0,1 -1,2l-3 5c-3,11 -2,59 -1,72 4,-4 12,-15 16,-21l47 -64c-9,0 -20,0 -30,0 -12,0 -16,-1 -26,5z"/>
   <path class="fil1" d="M405 671c2,2 8,1 11,1l31 0c3,0 3,-1 5,-2l4 -2c3,-2 5,-3 7,-5 0,-1 0,-2 1,-3l2 -3c2,-4 1,-59 1,-68 -3,2 -27,35 -31,40l-23 31c-3,3 -7,8 -8,11z"/>
   <path class="fil2" d="M249 470c1,2 0,14 0,16l0 31c0,2 0,5 0,7 0,2 0,3 0,4 0,1 1,2 -1,4l25 -1 60 0 58 1c6,-1 55,-1 59,0l3 0c-2,-2 1,-1 -9,-1l-165 0 0 -63c0,-5 0,-4 2,-7 -5,1 -10,9 -32,9z"/>
   <path class="fil3" d="M40 536c10,-6 14,-5 26,-5 10,0 21,0 30,0l58 1 61 -1 33 1c2,-2 1,-3 1,-4 0,-1 0,-2 0,-4 0,-2 0,-5 0,-7l0 -31c0,-2 1,-14 0,-16 -8,0 -11,0 -16,-2 -3,-1 -4,-2 -7,-3 -2,-1 -3,-2 -6,-3l0 69c-6,0 -169,-1 -174,0 -3,1 1,0 -1,1 -3,1 -4,2 -5,4z"/>
   <path class="fil4" d="M34 657c-3,-8 -1,-30 -1,-41 -1,-13 -2,-61 1,-72 -4,5 -3,20 -3,27l0 81c1,3 1,4 3,5z"/>
   <path class="fil5" d="M8 209c4,-5 2,-4 11,-13 2,-2 4,-3 6,-6 6,-5 30,-27 32,-30 -4,0 -18,16 -22,20 -3,3 -2,2 -4,3l-19 18c-1,2 -2,2 -3,4 0,0 0,1 0,1 -1,0 -1,-1 -1,3z"/>
   <path class="fil6" d="M495 217c0,-5 -3,-9 -6,-12 -1,-3 0,-2 -2,-4l-10 -10c-1,-2 -1,-2 -4,-2 3,4 8,8 12,12 6,7 7,13 10,16z"/>
   <path class="fil7" d="M400 121c-3,-4 -8,-9 -12,-12 -3,-3 -8,-11 -13,-11 3,4 8,8 12,11 4,4 9,10 13,12z"/>
   <path class="fil4" d="M473 189c-2,-3 -8,-8 -11,-12 -3,-2 -4,-3 -6,-6 -2,-2 -4,-4 -7,-5 2,4 8,9 12,12 3,3 8,9 12,11z"/>
   <path class="fil8" d="M449 166c-3,-3 -9,-8 -12,-12 -2,-2 -4,-3 -6,-5 -2,-3 -3,-5 -7,-6 3,5 8,9 12,12 4,3 8,9 13,11z"/>
   <path class="fil9" d="M424 143c-2,-3 -8,-8 -11,-12 -3,-2 -4,-3 -6,-5 -2,-2 -3,-5 -7,-5 2,4 8,8 12,11 3,3 8,10 12,11z"/>
   <path class="fil7" d="M82 137c4,-2 9,-8 12,-11 4,-4 10,-8 12,-12 -3,0 -4,3 -6,5 -3,2 -4,4 -7,6 -3,3 -9,8 -11,12z"/>
   <path class="fil7" d="M57 160c4,-2 10,-9 13,-11 4,-4 10,-8 12,-12 -4,0 -5,3 -7,5 -2,2 -4,4 -6,6 -4,3 -9,8 -12,12z"/>
   <path class="fil9" d="M106 114c4,-1 10,-8 13,-11 3,-3 9,-8 12,-12 -3,1 -4,2 -7,5l-18 18z"/>
   <path class="fil10" d="M495 254l2 -1c0,-4 1,-6 2,-10 0,-2 0,-3 0,-5 0,-6 0,-4 -1,-5 0,2 0,5 0,8 -1,5 -2,8 -3,13z"/>
   <path class="fil11" d="M25 280c-3,-4 -10,-10 -14,-14 0,4 4,5 6,8 2,2 4,6 8,6z"/>
   <path class="fil12" d="M190 36c4,-2 6,-5 9,-8 3,-3 7,-5 9,-8 -3,0 0,-1 -3,1l-3 3c0,0 -1,0 -1,0l-11 12z"/>
   <path class="fil11" d="M290 18l-3 -3c0,0 0,-1 0,-1 0,0 0,0 -1,0l-5 -5c-3,-2 -5,-4 -8,-4 1,1 6,4 8,6 3,2 6,6 9,7z"/>
   <path class="fil12" d="M283 458c4,0 6,-3 8,-6 3,-2 5,-4 7,-7 -3,1 -12,11 -15,13z"/>
   <path class="fil11" d="M143 80c3,-1 11,-9 12,-11 -2,0 -1,-1 -4,1l-2 3c-1,1 -1,1 -2,2 -2,2 -3,2 -4,5z"/>
   <path class="fil11" d="M357 390c4,-1 5,-4 7,-6 3,-3 5,-5 7,-7 -3,1 -12,10 -14,13z"/>
   <path class="fil7" d="M314 41c0,-2 0,-1 -1,-2l-1 -2c0,0 -1,0 -1,0 0,0 0,0 0,0l-1 -2c-2,-1 -5,-3 -6,-6l-2 0c2,3 9,10 12,12z"/>
   <path class="fil4" d="M332 413c4,-1 5,-4 8,-6 2,-2 4,-4 6,-7 -3,2 -11,10 -14,13z"/>
   <path class="fil7" d="M430 321c4,0 5,-3 7,-5 3,-3 5,-4 7,-7 -3,1 -12,10 -14,12z"/>
   <path class="fil13" d="M230 3c2,0 12,-3 13,-3l-11 0c-1,2 -1,1 -2,3z"/>
   <path class="fil4" d="M167 57c3,-1 11,-9 13,-11l-6 3c0,0 0,1 0,1l-3 3c-2,2 -3,2 -4,4z"/>
   <path class="fil5" d="M363 86l-6 -7c-2,-2 -3,-2 -4,-4l-2 0c1,2 9,10 12,11z"/>
   <path class="fil12" d="M147 395c-2,-3 -9,-10 -12,-12 1,2 3,4 5,6 1,1 2,2 3,3 2,2 1,2 4,3z"/>
   <path class="fil7" d="M457 297c2,-1 1,-1 3,-2 1,-2 2,-2 3,-3 2,-3 4,-4 6,-7 -3,2 -11,9 -12,12z"/>
   <path class="fil11" d="M196 440c-1,-2 -9,-10 -12,-11 1,2 3,4 5,6 1,1 2,1 3,3 2,2 1,2 4,2z"/>
   <path class="fil9" d="M383 365c3,-1 5,-3 7,-5 2,-2 4,-4 6,-6 -4,1 -11,8 -13,11z"/>
   <path class="fil6" d="M171 417c-1,-2 -9,-10 -12,-11 2,2 4,4 6,6 1,1 1,2 3,3 1,2 1,2 3,2z"/>
   <path class="fil8" d="M74 326c-2,-3 -9,-10 -13,-11 2,2 4,4 6,6 2,2 3,4 7,5z"/>
   <path class="fil4" d="M310 434c3,-1 4,-3 6,-5 3,-3 5,-4 6,-7 -3,2 -10,9 -12,12z"/>
   <path class="fil8" d="M49 303c-2,-2 -9,-10 -12,-11 1,2 3,4 5,6 3,2 4,4 7,5z"/>
   <path class="fil6" d="M123 372c-2,-3 -10,-10 -13,-12 2,3 4,4 6,6 1,1 2,2 3,3 2,2 1,2 4,3z"/>
   <path class="fil11" d="M98 349c-2,-2 -9,-10 -12,-11 1,2 3,3 5,5 3,3 4,5 7,6z"/>
   <path class="fil9" d="M408 342c3,0 4,-2 6,-4 2,-2 4,-4 5,-6 -2,1 -4,3 -6,4 -2,2 -3,4 -5,6z"/>
   <path class="fil10" d="M464 542c0,-3 -2,-4 -4,-6 -2,-2 -2,-3 -6,-4l2 2c2,1 2,1 3,3 2,1 3,3 5,5z"/>
   <path class="fil5" d="M339 64l-7 -8c-2,-1 -2,-1 -3,-4l-3 0 13 12z"/>
   <path class="fil12" d="M6 258c-1,-3 -3,-9 -4,-11 0,3 0,4 1,6 0,1 0,1 1,3 1,2 0,1 2,2z"/>
   <polygon class="fil8" points="264,2 264,0 256,0 "/>
   <path class="fil12" d="M217 460l-9 -8c1,2 2,2 4,4 2,2 2,3 5,4z"/>
   <path class="fil13" d="M456 668c3,0 6,-2 7,-5 -2,2 -4,3 -7,5z"/>
   <path class="fil9" d="M34 544l3 -5c-2,1 -2,1 -3,2l0 3z"/>
   <path class="fil12" d="M215 13c2,-1 2,-1 4,-3l-3 0c0,2 0,1 0,1 -1,1 -1,0 -1,2z"/>
   <path class="fil5" d="M490 263c3,-1 -1,1 1,-1 1,0 2,-1 2,-1 1,-2 0,-1 1,-3l-2 2c-1,1 -1,2 -2,3z"/>
   <polygon class="fil10" points="219,10 224,7 221,7 "/>
   <path class="fil13" d="M481 274c3,-1 4,-1 4,-4l-4 4z"/>
   <path class="fil12" d="M131 91c2,-1 2,-1 4,-3 -3,1 -3,1 -4,3z"/>
   <path class="fil12" d="M155 69c2,-1 3,-2 4,-4 -2,1 -2,1 -4,4z"/>
   <path class="fil12" d="M180 46c2,-1 2,-2 4,-4 -3,1 -3,2 -4,4z"/>
   <path class="fil13" d="M375 98c-1,-2 -1,-3 -4,-4 1,2 2,3 4,4z"/>
   <polygon class="fil4" points="452,670 455,670 456,668 "/>
   <polygon class="fil7" points="464,660 466,660 466,657 "/>
   <polygon class="fil10" points="273,5 272,3 269,3 "/>
   <path class="fil10" d="M302 29c-1,-2 -1,-2 -4,-3l4 3z"/>
   <path class="fil8" d="M351 75c-1,-2 -2,-2 -4,-3l4 3z"/>
   <path class="fil10" d="M326 52c-1,-2 -1,-2 -4,-3l4 3z"/>
   <polygon class="fil5" points="8,261 6,259 6,261 "/>
   <polygon class="fil7" points="4,216 6,213 4,214 "/>
   <path class="fil10" d="M11 266c-1,-1 0,-1 -2,-2l0 2 2 0z"/>
   <polygon class="fil5" points="164,60 166,59 164,59 "/>
   <polygon class="fil5" points="365,88 365,86 363,86 "/>
   <polygon class="fil5" points="293,21 293,20 291,20 "/>
   <polygon class="fil5" points="140,83 141,82 140,82 "/>
   <polygon class="fil5" points="340,65 340,64 339,64 "/>
   <polygon class="fil5" points="316,42 316,41 314,41 "/>
   <polygon class="fil5" points="291,20 291,18 290,18 "/>
   <polygon class="fil10" points="213,15 215,13 213,13 "/>
   <polygon class="fil5" points="138,85 140,83 138,83 "/>
   <polygon class="fil5" points="317,44 317,42 316,42 "/>
   <polygon class="fil5" points="366,90 366,88 365,88 "/>
   <polygon class="fil5" points="342,67 342,65 340,65 "/>
   <polygon class="fil5" points="295,23 295,21 293,21 "/>
   <polygon class="fil10" points="211,16 213,15 211,15 "/>
   <polygon class="fil5" points="319,46 319,44 317,44 "/>
   <polygon class="fil5" points="343,68 343,67 342,67 "/>
   <polygon class="fil5" points="368,91 368,90 366,90 "/>
   <polygon class="fil10" points="159,65 161,64 159,64 "/>
   <polygon class="fil10" points="185,41 187,39 185,39 "/>
   <polygon class="fil10" points="210,18 211,16 210,16 "/>
   <polygon class="fil10" points="208,20 210,18 208,18 "/>
   <polygon class="fil10" points="184,42 185,41 184,41 "/>
   <polygon class="fil5" points="321,47 321,46 319,46 "/>
   <polygon class="fil10" points="187,39 189,37 187,38 "/>
   <polygon class="fil10" points="135,88 136,86 135,86 "/>
   <polygon class="fil10" points="161,64 163,62 161,62 "/>
   <polygon class="fil5" points="166,59 167,57 166,57 "/>
   <polygon class="fil5" points="141,82 143,80 141,80 "/>
   <polygon class="fil5" points="189,37 190,36 189,36 "/>
   <polygon class="fil5" points="163,62 164,60 163,60 "/>
   <polygon class="fil5" points="136,86 138,85 136,85 "/>
   <polygon class="fil5" points="296,24 296,23 295,23 "/>
   <polygon class="fil5" points="345,70 345,68 343,68 "/>
   <polygon class="fil5" points="370,93 370,91 368,91 "/>
   <polygon class="fil7" points="219,461 218,460 218,461 "/>
   <path class="fil10" d="M298 26c-1,-3 1,-1 -2,-2l2 2z"/>
   <path class="fil5" d="M37 664l-2 -3c1,3 0,1 2,3z"/>
   <path class="fil5" d="M489 266c1,-1 1,0 1,-3l-1 3z"/>
   <path class="fil7" d="M322 49c0,-3 1,-1 -1,-2l1 2z"/>
   <path class="fil9" d="M42 668l-3 -2c2,2 0,1 3,2z"/>
   <path class="fil7" d="M347 72c-1,-3 1,-1 -2,-2l2 2z"/>
   <path class="fil7" d="M371 94c0,-2 1,0 -1,-1l1 1z"/>
   <path class="fil7" d="M428 323c3,-1 1,1 2,-2l-2 2z"/>
   <path class="fil9" d="M486 269c2,0 1,1 1,-2l-1 2z"/>
   <path class="fil10" d="M331 414c2,0 0,1 1,-1l-1 1z"/>
   <path class="fil10" d="M355 391c3,0 1,1 2,-1l-2 1z"/>
   <path class="fil13" d="M282 460c2,-1 0,1 1,-2l-1 2z"/>
   <path class="fil10" d="M308 435c2,0 1,1 1,-1l-1 1z"/>
   <path class="fil10" d="M174 419l-2 -1c1,1 0,1 2,1z"/>
   <path class="fil10" d="M125 373l-2 -1c1,2 0,1 2,1z"/>
   <path class="fil10" d="M51 305l-1 -2c0,2 0,2 1,2z"/>
   <path class="fil10" d="M100 351l-1 -2c0,2 0,1 1,2z"/>
   <path class="fil10" d="M149 396l-1 -1c0,1 0,1 1,1z"/>
   <path class="fil10" d="M198 442l-1 -2c0,2 -1,2 1,2z"/>
   <path class="fil10" d="M76 328l-2 -2c1,2 0,1 2,2z"/>
   <path class="fil10" d="M381 367c2,0 1,0 2,-2l-2 2z"/>
   <path class="fil4" d="M479 276c2,-1 1,0 1,-2l-1 2z"/>
   <path class="fil4" d="M27 282l-1 -1c0,1 -1,1 1,1z"/>
   <path class="fil4" d="M406 344c1,0 1,0 1,-1l-1 1z"/>
   <path class="fil4" d="M455 298c1,0 1,1 1,-1l-1 1z"/>
  </g>
 </g>
</svg>
