<?xml version="1.0" encoding="UTF-8"?>
<!DOCTYPE svg PUBLIC "-//W3C//DTD SVG 1.1//EN" "http://www.w3.org/Graphics/SVG/1.1/DTD/svg11.dtd">
<!-- Creator: CorelDRAW X7 -->
<svg xmlns="http://www.w3.org/2000/svg" xml:space="preserve" width="37.1612mm" height="14.7957mm" version="1.1" style="shape-rendering:geometricPrecision; text-rendering:geometricPrecision; image-rendering:optimizeQuality; fill-rule:evenodd; clip-rule:evenodd"
viewBox="0 0 3716 1480"
 xmlns:xlink="http://www.w3.org/1999/xlink">
 <defs>
  <style type="text/css">
   <![CDATA[
    .str0 {stroke:black;stroke-width:24.99}
    .fil0 {fill:black;fill-rule:nonzero}
   ]]>
  </style>
 </defs>
 <g id="Слой_x0020_1">
  <metadata id="CorelCorpID_0Corel-Layer"/>
  <path class="fil0 str0" d="M106 476c0,21 4,37 14,45 8,8 20,12 34,12 14,0 27,-4 35,-12 10,-8 14,-24 14,-45l0 -320c0,-22 -4,-36 -14,-46 -8,-8 -21,-12 -35,-12 -14,0 -26,4 -34,12 -10,10 -14,24 -14,46l0 320zm-93 -314c0,-48 12,-85 36,-111 24,-24 59,-38 105,-38 45,0 81,14 106,38 24,26 36,63 36,111l0 308c0,47 -12,85 -36,110 -25,26 -61,38 -106,38 -46,0 -81,-12 -105,-38 -24,-25 -36,-63 -36,-110l0 -308zm615 302c0,51 -10,89 -34,116 -22,26 -59,38 -107,38 -45,0 -81,-12 -104,-38 -24,-25 -34,-63 -34,-110l0 -16 87 0 0 22c0,21 4,37 14,45 8,8 20,12 35,12 16,0 28,-4 38,-14 8,-10 12,-30 12,-57l0 -109c-16,34 -44,53 -85,53 -34,0 -61,-13 -77,-35 -18,-24 -26,-57 -26,-101l0 -108c0,-48 12,-85 36,-111 25,-24 59,-38 106,-38 44,0 79,14 103,38 24,26 36,63 36,111l0 302 0 0zm-139 -144c14,0 26,-4 34,-12 8,-10 12,-24 12,-46l0 -106c0,-22 -4,-36 -12,-44 -8,-10 -20,-14 -34,-14 -17,0 -27,4 -37,14 -8,8 -12,22 -12,44l0 106c0,22 4,36 12,46 10,8 20,12 37,12zm285 102l0 54c0,21 4,37 14,45 9,8 21,12 35,12 14,0 26,-4 34,-12 10,-8 14,-24 14,-45l0 -131c0,-21 -4,-37 -14,-45 -8,-8 -20,-12 -34,-12 -14,0 -26,4 -35,12 -10,8 -14,24 -14,45l0 18 -87 0 16 -342 245 0 0 83 -162 0 -6 141c17,-28 45,-42 81,-42 35,0 59,10 77,34 17,23 27,57 27,102l0 131c0,47 -13,85 -37,110 -22,26 -57,38 -103,38 -45,0 -79,-12 -103,-38 -25,-25 -35,-63 -35,-110l0 -48 87 0 0 0zm440 -328c18,0 34,-2 44,-7 13,-4 23,-8 29,-16 8,-6 14,-14 18,-22 4,-10 8,-18 12,-28l63 0 0 591 -93 0 0 -452 -73 0 0 -66zm462 70c0,-26 -4,-44 -12,-52 -9,-10 -21,-14 -35,-14 -16,0 -26,4 -36,12 -8,10 -12,24 -12,46l0 63 -90 0 0 -57c0,-48 13,-85 37,-111 22,-24 57,-38 103,-38 45,0 81,14 103,38 25,26 35,63 35,111 0,33 -4,61 -14,88 -10,26 -23,48 -37,70 -14,21 -30,41 -46,59 -19,18 -33,35 -47,51 -14,16 -24,32 -32,48 -8,15 -10,33 -8,49l176 0 0 85 -270 0 0 -73c0,-28 6,-54 15,-77 10,-20 20,-40 34,-58 14,-21 28,-37 45,-53 16,-16 30,-33 44,-51 14,-18 24,-38 35,-59 8,-22 12,-46 12,-77l0 0zm235 258l0 54c0,21 4,37 14,45 8,8 20,12 34,12 15,0 27,-4 35,-12 10,-8 14,-24 14,-45l0 -131c0,-21 -4,-37 -14,-45 -8,-8 -20,-12 -35,-12 -14,0 -26,4 -34,12 -10,8 -14,24 -14,45l0 18 -87 0 16 -342 245 0 0 83 -162 0 -6 141c16,-28 44,-42 81,-42 34,0 61,10 77,34 16,23 26,57 26,102l0 131c0,47 -12,85 -36,110 -23,26 -57,38 -104,38 -44,0 -79,-12 -103,-38 -22,-25 -34,-63 -34,-110l0 -48 87 0 0 0zm656 42c0,51 -12,89 -34,116 -25,26 -59,38 -108,38 -46,0 -81,-12 -103,-38 -24,-25 -36,-63 -36,-110l0 -16 89 0 0 22c0,21 4,37 12,45 8,8 20,12 34,12 18,0 31,-4 39,-14 10,-10 14,-30 14,-57l0 -109c-16,34 -45,53 -87,53 -35,0 -59,-13 -77,-35 -16,-24 -27,-57 -27,-101l0 -108c0,-48 13,-85 37,-111 24,-24 61,-38 105,-38 47,0 81,14 106,38 24,26 36,63 36,111l0 302 0 0zm-142 -144c14,0 27,-4 35,-12 10,-10 14,-24 14,-46l0 -106c0,-22 -4,-36 -14,-44 -8,-10 -21,-14 -35,-14 -14,0 -26,4 -34,14 -10,8 -14,22 -14,44l0 106c0,22 4,36 14,46 8,8 20,12 34,12zm476 144c0,51 -10,89 -34,116 -22,26 -59,38 -107,38 -45,0 -79,-12 -104,-38 -24,-25 -34,-63 -34,-110l0 -16 87 0 0 22c0,21 4,37 14,45 8,8 20,12 35,12 16,0 28,-4 38,-14 8,-10 12,-30 12,-57l0 -109c-16,34 -44,53 -85,53 -34,0 -61,-13 -77,-35 -18,-24 -26,-57 -26,-101l0 -108c0,-48 12,-85 36,-111 25,-24 59,-38 106,-38 44,0 79,14 103,38 24,26 36,63 36,111l0 302 0 0zm-139 -144c14,0 26,-4 34,-12 8,-10 12,-24 12,-46l0 -106c0,-22 -4,-36 -12,-44 -8,-10 -20,-14 -34,-14 -17,0 -27,4 -37,14 -8,8 -12,22 -12,44l0 106c0,22 4,36 12,46 10,8 20,12 37,12zm607 144c0,51 -12,89 -36,116 -22,26 -59,38 -107,38 -45,0 -79,-12 -104,-38 -22,-25 -34,-63 -34,-110l0 -16 87 0 0 22c0,21 4,37 14,45 8,8 20,12 34,12 17,0 29,-4 39,-14 8,-10 14,-30 14,-57l0 -109c-18,34 -46,53 -87,53 -34,0 -61,-13 -77,-35 -18,-24 -26,-57 -26,-101l0 -108c0,-48 12,-85 36,-111 25,-24 59,-38 106,-38 44,0 81,14 105,38 24,26 36,63 36,111l0 302 0 0zm-141 -144c14,0 26,-4 34,-12 8,-10 14,-24 14,-46l0 -106c0,-22 -6,-36 -14,-44 -8,-10 -20,-14 -34,-14 -15,0 -27,4 -37,14 -8,8 -12,22 -12,44l0 106c0,22 4,36 12,46 10,8 22,12 37,12zm259 -226c18,0 34,-2 44,-7 13,-4 23,-8 29,-16 8,-6 14,-14 18,-22 4,-10 8,-18 12,-28l63 0 0 591 -93 0 0 -452 -73 0 0 -66zm-3381 1229c0,21 4,37 14,45 8,10 20,14 34,14 14,0 27,-4 35,-14 10,-8 14,-24 14,-45l0 -320c0,-22 -4,-36 -14,-44 -8,-11 -21,-15 -35,-15 -14,0 -26,4 -34,15 -10,8 -14,22 -14,44l0 320zm-93 -314c0,-48 12,-85 36,-111 24,-24 59,-39 105,-39 45,0 81,15 106,39 24,26 36,63 36,111l0 308c0,49 -12,85 -36,112 -25,24 -61,38 -106,38 -46,0 -81,-14 -105,-38 -24,-27 -36,-63 -36,-112l0 -308zm615 302c0,51 -10,89 -34,116 -22,26 -59,40 -107,40 -45,0 -81,-14 -104,-38 -24,-27 -34,-63 -34,-112l0 -16 87 0 0 22c0,20 4,37 14,45 8,10 20,14 35,14 16,0 28,-6 38,-16 8,-10 12,-29 12,-57l0 -109c-16,36 -44,52 -85,52 -34,0 -61,-10 -77,-34 -18,-22 -26,-57 -26,-101l0 -108c0,-48 12,-85 36,-111 25,-25 59,-39 106,-39 44,0 79,14 103,39 24,26 36,63 36,111l0 302 0 0zm-139 -144c14,0 26,-4 34,-12 8,-8 12,-24 12,-44l0 -108c0,-22 -4,-36 -12,-44 -8,-9 -20,-13 -34,-13 -17,0 -27,4 -37,13 -8,8 -12,22 -12,44l0 108c0,20 4,36 12,44 10,8 20,12 37,12zm482 150c0,49 -12,85 -39,112 -24,24 -61,38 -107,38 -49,0 -83,-14 -110,-38 -24,-27 -36,-63 -36,-112l0 -46c0,-29 4,-55 14,-75 8,-21 22,-37 43,-49 -39,-20 -57,-61 -57,-120l0 -18c0,-48 12,-85 36,-111 27,-24 61,-39 110,-39 46,0 83,15 107,39 27,26 39,63 39,111l0 18c0,59 -21,98 -59,120 20,12 34,28 45,49 8,20 14,46 14,75l0 46zm-199 -2c0,26 4,45 14,53 11,10 25,14 39,14 14,0 26,-4 36,-14 10,-8 15,-27 17,-53l0 -55c0,-24 -7,-42 -15,-52 -10,-10 -22,-14 -38,-14 -16,0 -31,4 -39,14 -10,10 -14,28 -14,52l0 55 0 0zm0 -269c0,24 4,40 14,48 11,10 23,15 39,15 14,0 26,-5 36,-15 10,-8 17,-24 17,-48l0 -33c0,-26 -7,-44 -17,-54 -10,-11 -22,-15 -36,-15 -14,0 -28,4 -39,15 -10,10 -14,28 -14,54l0 33zm442 -104c18,0 34,-2 44,-6 13,-4 23,-10 29,-16 8,-8 14,-16 18,-24 4,-10 8,-18 12,-29l63 0 0 592 -93 0 0 -452 -73 0 0 -65 0 0zm364 381c0,21 5,37 13,45 8,10 20,14 34,14 16,0 26,-4 37,-14 8,-8 12,-24 12,-45l0 -320c0,-22 -4,-36 -12,-44 -11,-11 -21,-15 -37,-15 -14,0 -26,4 -34,15 -8,8 -13,22 -13,44l0 320zm-93 -314c0,-48 12,-85 37,-111 24,-24 59,-39 103,-39 47,0 81,15 105,39 25,26 37,63 37,111l0 308c0,49 -12,85 -37,112 -24,24 -58,38 -105,38 -44,0 -79,-14 -103,-38 -25,-27 -37,-63 -37,-112l0 -308zm616 -142l0 81 -138 511 -93 0 136 -506 -184 0 0 -86 279 0 0 0zm466 0l0 81 -138 511 -93 0 138 -506 -186 0 0 -86 279 0 0 0zm148 456c0,21 4,37 12,45 8,10 20,14 35,14 16,0 26,-4 36,-14 8,-8 12,-24 12,-45l0 -320c0,-22 -4,-36 -12,-44 -10,-11 -20,-15 -36,-15 -15,0 -27,4 -35,15 -8,8 -12,22 -12,44l0 320zm-93 -314c0,-48 12,-85 36,-111 25,-24 59,-39 104,-39 46,0 81,15 105,39 24,26 36,63 36,111l0 308c0,49 -12,85 -36,112 -24,24 -59,38 -105,38 -45,0 -79,-14 -104,-38 -24,-27 -36,-63 -36,-112l0 -308zm747 -142l0 81 -137 511 -94 0 136 -506 -184 0 0 -86 279 0 0 0zm335 0l0 81 -138 511 -93 0 137 -506 -186 0 0 -86 280 0 0 0z"/>
 </g>
</svg>
