<?xml version="1.0" encoding="UTF-8"?>
<!DOCTYPE svg PUBLIC "-//W3C//DTD SVG 1.1//EN" "http://www.w3.org/Graphics/SVG/1.1/DTD/svg11.dtd">
<!-- Creator: CorelDRAW X7 -->
<svg xmlns="http://www.w3.org/2000/svg" xml:space="preserve" width="32.5036mm" height="6.0621mm" version="1.1" style="shape-rendering:geometricPrecision; text-rendering:geometricPrecision; image-rendering:optimizeQuality; fill-rule:evenodd; clip-rule:evenodd"
viewBox="0 0 960 179"
 xmlns:xlink="http://www.w3.org/1999/xlink">
 <defs>
  <style type="text/css">
   <![CDATA[
    .fil0 {fill:#E31E24;fill-rule:nonzero}
   ]]>
  </style>
 </defs>
 <g id="Слой_x0020_1">
  <metadata id="CorelCorpID_0Corel-Layer"/>
  <path class="fil0" d="M96 177l-28 0 -4 -32 -34 0 -5 32 -25 0 28 -175 40 0 28 175zm-63 -56l27 0 -13 -88 -14 88zm117 -119c15,0 25,3 31,10 7,7 10,17 10,30l0 6c0,9 -1,17 -4,23 -3,6 -8,10 -14,13 8,3 13,7 16,14 3,6 5,14 5,23l0 14c0,14 -4,24 -11,31 -7,7 -17,11 -31,11l-43 0 0 -175 41 0zm-14 96l0 54 16 0c5,0 8,-1 11,-4 2,-2 3,-7 3,-13l0 -16c0,-8 -1,-13 -4,-16 -3,-3 -7,-5 -14,-5l-12 0zm0 -71l0 46 11 0c5,0 9,-1 12,-4 3,-2 4,-7 4,-14l0 -10c0,-6 -1,-11 -3,-14 -2,-3 -6,-4 -11,-4l-13 0zm66 -25l85 0 0 25 -28 0 0 150 -28 0 0 -150 -29 0 0 -25zm123 135c0,6 1,11 4,13 2,3 6,4 10,4 4,0 8,-1 11,-4 2,-2 3,-7 3,-13l0 -95c0,-6 -1,-11 -3,-13 -3,-3 -7,-4 -11,-4 -4,0 -8,1 -10,4 -3,2 -4,7 -4,13l0 95zm-28 -93c0,-14 4,-25 11,-33 7,-7 18,-11 31,-11 14,0 24,4 31,11 7,8 11,19 11,33l0 91c0,14 -4,25 -11,33 -7,7 -17,11 -31,11 -13,0 -24,-4 -31,-11 -7,-8 -11,-19 -11,-33l0 -91zm179 108l22 0 0 -150 28 0 0 175 -128 0 0 -175 28 0 0 150 22 0 0 -150 28 0 0 150zm106 -45l-9 16 0 54 -27 0 0 -175 27 0 0 76 37 -76 27 0 -39 78 39 97 -29 0 -26 -70zm92 30c0,6 1,11 4,13 3,3 6,4 10,4 5,0 8,-1 11,-4 2,-2 4,-7 4,-13l0 -95c0,-6 -2,-11 -4,-13 -3,-3 -6,-4 -11,-4 -4,0 -7,1 -10,4 -3,2 -4,7 -4,13l0 95zm-27 -93c0,-14 3,-25 10,-33 7,-7 18,-11 31,-11 14,0 24,4 31,11 7,8 11,19 11,33l0 91c0,14 -4,25 -11,33 -7,7 -17,11 -31,11 -13,0 -24,-4 -31,-11 -7,-8 -10,-19 -10,-33l0 -91zm178 -17l-32 0 0 106c0,9 -1,17 -3,22 -3,6 -6,10 -9,14 -4,3 -8,5 -13,6 -5,2 -10,2 -15,2 -2,0 -4,0 -6,0 -2,0 -5,0 -7,0l0 -25c2,0 3,0 5,0 1,0 3,0 5,0 4,0 8,-1 11,-3 3,-2 4,-7 4,-14l0 -133 87 0 0 175 -27 0 0 -150zm76 150l-29 0 0 -175 25 0 0 105 28 -105 35 0 0 175 -25 0 0 -127 -34 127z"/>
 </g>
</svg>
