<?xml version="1.0" encoding="UTF-8"?>
<!DOCTYPE svg PUBLIC "-//W3C//DTD SVG 1.1//EN" "http://www.w3.org/Graphics/SVG/1.1/DTD/svg11.dtd">
<!-- Creator: CorelDRAW X7 -->
<svg xmlns="http://www.w3.org/2000/svg" xml:space="preserve" width="36.5423mm" height="15.24mm" version="1.1" style="shape-rendering:geometricPrecision; text-rendering:geometricPrecision; image-rendering:optimizeQuality; fill-rule:evenodd; clip-rule:evenodd"
viewBox="0 0 1224 511"
 xmlns:xlink="http://www.w3.org/1999/xlink">
 <defs>
  <style type="text/css">
   <![CDATA[
    .fil0 {fill:#2B2A29;fill-rule:nonzero}
   ]]>
  </style>
 </defs>
 <g id="Слой_x0020_1">
  <metadata id="CorelCorpID_0Corel-Layer"/>
  <path class="fil0" d="M62 51c0,-9 -2,-15 -5,-18 -2,-3 -6,-5 -11,-5 -5,0 -9,2 -12,5 -3,3 -5,8 -5,15l0 21 -29 0 0 -19c0,-16 4,-28 12,-37 8,-9 19,-13 35,-13 15,0 26,4 34,13 8,9 12,21 12,37l0 5c0,21 -7,35 -22,41 8,3 14,9 17,16 3,7 5,15 5,26l0 15c0,16 -4,29 -12,37 -8,9 -19,13 -34,13 -16,0 -27,-4 -35,-13 -8,-8 -12,-21 -12,-37l0 -25 29 0 0 27c0,7 2,12 5,15 3,3 7,5 12,5 5,0 9,-2 11,-5 3,-3 5,-9 5,-18l0 -15c0,-10 -2,-16 -5,-20 -3,-4 -8,-6 -16,-6l-4 0 0 -28 6 0c6,0 11,-1 14,-4 3,-3 5,-9 5,-17l0 -11zm152 150l-32 0 -5 -36 -39 0 -5 36 -29 0 32 -199 46 0 32 199zm-72 -63l30 0 -15 -101 -15 101zm117 63l-31 0 0 -199 98 0 0 199 -32 0 0 -170 -35 0 0 170zm136 -199c16,0 27,4 35,13 8,8 11,20 11,36l0 26c0,16 -3,28 -11,37 -8,8 -19,12 -35,12l-15 0 0 75 -31 0 0 -199 46 0zm-15 29l0 67 15 0c5,0 9,-1 11,-4 3,-3 4,-8 4,-15l0 -30c0,-7 -1,-12 -4,-14 -2,-3 -6,-4 -11,-4l-15 0zm104 124c0,7 1,12 4,15 3,3 7,5 12,5 5,0 9,-2 12,-5 3,-3 4,-8 4,-15l0 -107c0,-7 -1,-12 -4,-15 -3,-3 -7,-5 -12,-5 -5,0 -9,2 -12,5 -3,3 -4,8 -4,15l0 107zm-31 -105c0,-16 4,-28 12,-37 8,-9 20,-13 35,-13 15,0 27,4 35,13 8,9 12,21 12,37l0 103c0,16 -4,29 -12,37 -8,9 -20,13 -35,13 -15,0 -27,-4 -35,-13 -8,-8 -12,-21 -12,-37l0 -103zm202 122l25 0 0 -170 32 0 0 199 -145 0 0 -199 31 0 0 170 26 0 0 -170 31 0 0 170zm88 0c2,1 3,1 5,1 2,0 4,0 6,0 2,0 4,-1 7,-1 2,-1 4,-2 5,-3 2,-2 3,-4 4,-7 1,-3 1,-6 1,-11l-45 -149 31 0 34 117 29 -117 31 0 -41 147c-3,13 -7,24 -11,31 -3,7 -7,12 -12,16 -4,3 -8,4 -13,5 -5,0 -10,0 -16,0 -3,0 -5,0 -8,0 -2,0 -4,0 -7,0l0 -29zm153 29l-31 0 0 -199 31 0 0 85 19 0 0 -37c0,-16 4,-28 12,-37 8,-9 20,-13 35,-13 16,0 27,4 36,13 8,9 12,21 12,37l0 103c0,16 -4,29 -12,37 -9,9 -20,13 -36,13 -15,0 -27,-4 -35,-13 -8,-8 -12,-21 -12,-37l0 -37 -19 0 0 85zm50 -46c0,7 2,12 5,15 3,3 7,5 11,5 5,0 9,-2 12,-5 3,-3 5,-8 5,-15l0 -107c0,-7 -2,-12 -5,-15 -3,-3 -7,-5 -12,-5 -4,0 -8,2 -11,5 -3,3 -5,8 -5,15l0 107zm75 -153l97 0 0 29 -33 0 0 170 -31 0 0 -170 -33 0 0 -29zm157 170c5,0 8,-1 11,-4 3,-2 4,-7 4,-14l0 -30c0,-7 -1,-12 -4,-15 -3,-2 -6,-4 -11,-4l-15 0 0 67 15 0zm-46 29l0 -199 31 0 0 75 15 0c15,0 27,4 35,12 7,9 11,21 11,37l0 26c0,16 -4,28 -11,36 -8,9 -20,13 -35,13l-46 0zm-1098 310l-31 0 0 -199 31 0 0 85 35 0 0 -85 32 0 0 199 -32 0 0 -86 -35 0 0 86zm191 0l-32 0 -5 -36 -39 0 -5 36 -29 0 32 -199 46 0 32 199zm-72 -63l31 0 -16 -101 -15 101zm161 63l-31 0 0 -199 31 0 0 85 35 0 0 -85 32 0 0 199 -32 0 0 -86 -35 0 0 86zm191 0l-32 0 -5 -36 -39 0 -5 36 -29 0 32 -199 46 0 32 199zm-72 -63l30 0 -15 -101 -15 101zm133 -136c16,0 28,4 35,11 7,8 11,19 11,35l0 7c0,10 -1,18 -5,25 -3,7 -8,12 -15,15 8,3 14,8 18,16 3,7 5,16 5,26l0 16c0,16 -4,27 -12,36 -8,8 -19,12 -35,12l-49 0 0 -199 47 0zm-16 109l0 61 18 0c5,0 9,-1 12,-4 3,-3 4,-8 4,-15l0 -18c0,-9 -2,-15 -5,-19 -3,-3 -8,-5 -15,-5l-14 0zm0 -81l0 53 12 0c6,0 11,-2 14,-5 3,-3 5,-8 5,-16l0 -11c0,-7 -1,-13 -4,-16 -2,-3 -6,-5 -12,-5l-15 0zm108 -28l0 77c0,7 1,12 4,15 3,2 7,4 12,4 5,0 8,-1 11,-4 3,-2 5,-7 5,-13l0 -79 31 0 0 199 -31 0 0 -77c-3,1 -5,2 -8,2 -3,0 -6,1 -9,1 -15,0 -27,-5 -35,-13 -7,-9 -11,-21 -11,-37l0 -75 31 0zm187 199l-32 0 -5 -36 -38 0 -6 36 -28 0 31 -199 46 0 32 199zm-71 -63l30 0 -15 -101 -15 101zm116 63l-31 0 0 -199 31 0 0 85 36 0 0 -85 31 0 0 199 -31 0 0 -86 -36 0 0 86zm121 0l-31 0 0 -199 31 0 0 85 36 0 0 -85 31 0 0 199 -31 0 0 -86 -36 0 0 86zm135 -171c-5,0 -9,2 -12,5 -2,3 -4,9 -4,16l0 19c0,8 2,14 5,17 4,3 8,4 14,4l12 0 0 -61 -15 0zm-51 171c2,-4 3,-8 3,-12 1,-3 1,-8 1,-13l0 -30c0,-11 1,-19 4,-27 3,-7 9,-12 17,-15 -14,-7 -21,-20 -21,-41l0 -15c0,-16 4,-27 11,-35 7,-7 19,-11 35,-11l47 0 0 199 -31 0 0 -81 -10 0c-8,0 -13,2 -16,5 -3,4 -5,11 -5,20l0 31c0,4 0,7 0,10 0,3 0,5 -1,7 0,1 0,3 -1,4 0,1 0,2 -1,4l-32 0z"/>
 </g>
</svg>
