<?xml version="1.0" encoding="UTF-8"?>
<!DOCTYPE svg PUBLIC "-//W3C//DTD SVG 1.1//EN" "http://www.w3.org/Graphics/SVG/1.1/DTD/svg11.dtd">
<!-- Creator: CorelDRAW X7 -->
<svg xmlns="http://www.w3.org/2000/svg" xml:space="preserve" width="98.9982mm" height="27.6752mm" version="1.1" style="shape-rendering:geometricPrecision; text-rendering:geometricPrecision; image-rendering:optimizeQuality; fill-rule:evenodd; clip-rule:evenodd"
viewBox="0 0 9900 2768"
 xmlns:xlink="http://www.w3.org/1999/xlink">
 <defs>
  <style type="text/css">
   <![CDATA[
    .str0 {stroke:#FEFEFE;stroke-width:25;stroke-linecap:round;stroke-linejoin:round}
    .fil1 {fill:none;fill-rule:nonzero}
    .fil0 {fill:#000029}
    .fil2 {fill:#FEFEFE;fill-rule:nonzero}
   ]]>
  </style>
 </defs>
 <g id="Слой_x0020_1">
  <metadata id="CorelCorpID_0Corel-Layer"/>
  <rect class="fil0" width="9900" height="2768"/>
  <g id="_765088992">
   <g>
    <path class="fil1 str0" d="M1272 1274l-135 0 0 -858 425 0 0 858 -137 0 0 -735 -153 0 0 735zm388 -858l135 0 0 858 -135 0 0 -858zm184 735c7,1 15,2 23,2 8,0 16,0 24,0 21,0 39,-6 54,-16 15,-11 23,-33 23,-67l0 -654 426 0 0 735 69 0 0 221 -137 0 0 -98 -345 0 0 98 -137 0 0 -221zm259 -90c0,36 -4,66 -12,90l168 0 0 -612 -156 0 0 522zm550 213l-135 0 0 -858 357 0 0 123 -222 0 0 735zm405 -197c0,31 7,52 19,65 13,13 30,19 51,19 21,0 38,-6 51,-19 13,-13 19,-34 19,-65l0 -464c0,-31 -6,-53 -19,-65 -13,-13 -30,-19 -51,-19 -21,0 -38,6 -51,19 -12,12 -19,34 -19,65l0 464zm-134 -455c0,-69 17,-123 52,-160 35,-37 86,-56 152,-56 66,0 117,19 152,56 35,37 53,91 53,160l0 446c0,69 -18,123 -53,160 -35,37 -86,56 -152,56 -66,0 -117,-19 -152,-56 -35,-37 -52,-91 -52,-160l0 -446zm458 -206l417 0 0 123 -141 0 0 735 -135 0 0 -735 -141 0 0 -123zm600 661c0,31 7,52 19,65 13,13 30,19 51,19 21,0 38,-6 51,-19 13,-13 19,-34 19,-65l0 -464c0,-31 -6,-53 -19,-65 -13,-13 -30,-19 -51,-19 -21,0 -38,6 -51,19 -12,12 -19,34 -19,65l0 464zm-134 -455c0,-69 17,-123 52,-160 35,-37 86,-56 152,-56 66,0 117,19 152,56 35,37 53,91 53,160l0 446c0,69 -18,123 -53,160 -35,37 -86,56 -152,56 -66,0 -117,-19 -152,-56 -35,-37 -52,-91 -52,-160l0 -446zm698 -206c70,0 121,16 153,49 31,33 47,82 47,148l0 31c0,44 -7,80 -21,109 -14,29 -36,50 -66,64 37,14 63,36 78,68 15,31 22,70 22,116l0 69c0,67 -17,117 -51,152 -34,35 -86,52 -153,52l-212 0 0 -858 203 0zm-69 472l0 263 78 0c23,0 40,-6 52,-18 12,-12 18,-34 18,-66l0 -75c0,-40 -7,-67 -21,-82 -13,-15 -35,-22 -66,-22l-61 0zm0 -349l0 226 53 0c25,0 45,-6 60,-19 14,-13 21,-37 21,-71l0 -48c0,-31 -5,-54 -16,-68 -12,-13 -29,-20 -53,-20l-65 0zm538 393l-41 78 0 264 -135 0 0 -858 135 0 0 374 179 -374 132 0 -187 382 187 476 -138 0 -132 -342zm766 342l-136 0 -23 -156 -165 0 -24 156 -123 0 137 -858 197 0 137 858zm-307 -272l130 0 -65 -434 -65 434z"/>
    <path id="1" class="fil2" d="M1272 1274l-135 0 0 -858 425 0 0 858 -137 0 0 -735 -153 0 0 735zm388 -858l135 0 0 858 -135 0 0 -858zm184 735c7,1 15,2 23,2 8,0 16,0 24,0 21,0 39,-6 54,-16 15,-11 23,-33 23,-67l0 -654 426 0 0 735 69 0 0 221 -137 0 0 -98 -345 0 0 98 -137 0 0 -221zm259 -90c0,36 -4,66 -12,90l168 0 0 -612 -156 0 0 522zm550 213l-135 0 0 -858 357 0 0 123 -222 0 0 735zm405 -197c0,31 7,52 19,65 13,13 30,19 51,19 21,0 38,-6 51,-19 13,-13 19,-34 19,-65l0 -464c0,-31 -6,-53 -19,-65 -13,-13 -30,-19 -51,-19 -21,0 -38,6 -51,19 -12,12 -19,34 -19,65l0 464zm-134 -455c0,-69 17,-123 52,-160 35,-37 86,-56 152,-56 66,0 117,19 152,56 35,37 53,91 53,160l0 446c0,69 -18,123 -53,160 -35,37 -86,56 -152,56 -66,0 -117,-19 -152,-56 -35,-37 -52,-91 -52,-160l0 -446zm458 -206l417 0 0 123 -141 0 0 735 -135 0 0 -735 -141 0 0 -123zm600 661c0,31 7,52 19,65 13,13 30,19 51,19 21,0 38,-6 51,-19 13,-13 19,-34 19,-65l0 -464c0,-31 -6,-53 -19,-65 -13,-13 -30,-19 -51,-19 -21,0 -38,6 -51,19 -12,12 -19,34 -19,65l0 464zm-134 -455c0,-69 17,-123 52,-160 35,-37 86,-56 152,-56 66,0 117,19 152,56 35,37 53,91 53,160l0 446c0,69 -18,123 -53,160 -35,37 -86,56 -152,56 -66,0 -117,-19 -152,-56 -35,-37 -52,-91 -52,-160l0 -446zm698 -206c70,0 121,16 153,49 31,33 47,82 47,148l0 31c0,44 -7,80 -21,109 -14,29 -36,50 -66,64 37,14 63,36 78,68 15,31 22,70 22,116l0 69c0,67 -17,117 -51,152 -34,35 -86,52 -153,52l-212 0 0 -858 203 0zm-69 472l0 263 78 0c23,0 40,-6 52,-18 12,-12 18,-34 18,-66l0 -75c0,-40 -7,-67 -21,-82 -13,-15 -35,-22 -66,-22l-61 0zm0 -349l0 226 53 0c25,0 45,-6 60,-19 14,-13 21,-37 21,-71l0 -48c0,-31 -5,-54 -16,-68 -12,-13 -29,-20 -53,-20l-65 0zm538 393l-41 78 0 264 -135 0 0 -858 135 0 0 374 179 -374 132 0 -187 382 187 476 -138 0 -132 -342zm766 342l-136 0 -23 -156 -165 0 -24 156 -123 0 137 -858 197 0 137 858zm-307 -272l130 0 -65 -434 -65 434z"/>
   </g>
   <g>
    <path class="fil1 str0" d="M6392 384c70,0 121,16 152,49 32,32 47,82 47,148l0 31c0,44 -7,80 -20,109 -14,28 -36,50 -67,64 37,13 63,36 78,68 15,31 23,70 23,115l0 70c0,66 -17,117 -52,152 -34,34 -85,52 -153,52l-212 0 0 -858 204 0zm-69 472l0 263 77 0c23,0 41,-6 52,-18 12,-13 18,-35 18,-66l0 -75c0,-40 -7,-68 -20,-82 -14,-15 -36,-22 -67,-22l-60 0zm0 -350l0 227 53 0c25,0 45,-6 59,-20 14,-13 22,-36 22,-71l0 -47c0,-31 -6,-54 -17,-68 -11,-14 -28,-21 -52,-21l-65 0zm484 538c0,31 6,53 19,66 13,13 30,19 51,19 21,0 38,-6 51,-19 12,-13 19,-35 19,-66l0 -463c0,-31 -7,-53 -19,-65 -13,-13 -30,-19 -51,-19 -21,0 -38,6 -51,19 -13,12 -19,34 -19,65l0 463zm-135 -454c0,-70 18,-123 53,-160 35,-37 86,-56 152,-56 66,0 117,19 152,56 35,37 53,90 53,160l0 446c0,69 -18,122 -53,160 -35,37 -86,55 -152,55 -66,0 -117,-18 -152,-55 -35,-38 -53,-91 -53,-160l0 -446zm446 529c8,1 16,1 24,1 8,0 16,0 23,0 21,0 39,-5 54,-16 16,-10 23,-32 23,-66l0 -654 427 0 0 735 68 0 0 221 -137 0 0 -98 -344 0 0 98 -138 0 0 -221zm259 -91c0,36 -4,67 -11,91l168 0 0 -613 -157 0 0 522zm415 -644l135 0 0 858 -135 0 0 -858zm277 0l135 0 0 858 -135 0 0 -858zm32 -167l0 125 -125 0 0 -125 125 0zm196 0l0 125 -125 0 0 -125 125 0zm253 167c70,0 121,16 152,49 32,32 47,82 47,148l0 31c0,44 -6,80 -20,109 -14,28 -36,50 -67,64 37,13 63,36 78,68 15,31 23,70 23,115l0 70c0,66 -17,117 -52,152 -34,34 -85,52 -153,52l-212 0 0 -858 204 0zm-69 472l0 263 77 0c23,0 41,-6 52,-18 12,-13 18,-35 18,-66l0 -75c0,-40 -7,-68 -20,-82 -14,-15 -36,-22 -67,-22l-60 0zm0 -350l0 227 53 0c25,0 45,-6 59,-20 15,-13 22,-36 22,-71l0 -47c0,-31 -6,-54 -17,-68 -11,-14 -28,-21 -52,-21l-65 0z"/>
    <path id="1" class="fil2" d="M6392 384c70,0 121,16 152,49 32,32 47,82 47,148l0 31c0,44 -7,80 -20,109 -14,28 -36,50 -67,64 37,13 63,36 78,68 15,31 23,70 23,115l0 70c0,66 -17,117 -52,152 -34,34 -85,52 -153,52l-212 0 0 -858 204 0zm-69 472l0 263 77 0c23,0 41,-6 52,-18 12,-13 18,-35 18,-66l0 -75c0,-40 -7,-68 -20,-82 -14,-15 -36,-22 -67,-22l-60 0zm0 -350l0 227 53 0c25,0 45,-6 59,-20 14,-13 22,-36 22,-71l0 -47c0,-31 -6,-54 -17,-68 -11,-14 -28,-21 -52,-21l-65 0zm484 538c0,31 6,53 19,66 13,13 30,19 51,19 21,0 38,-6 51,-19 12,-13 19,-35 19,-66l0 -463c0,-31 -7,-53 -19,-65 -13,-13 -30,-19 -51,-19 -21,0 -38,6 -51,19 -13,12 -19,34 -19,65l0 463zm-135 -454c0,-70 18,-123 53,-160 35,-37 86,-56 152,-56 66,0 117,19 152,56 35,37 53,90 53,160l0 446c0,69 -18,122 -53,160 -35,37 -86,55 -152,55 -66,0 -117,-18 -152,-55 -35,-38 -53,-91 -53,-160l0 -446zm446 529c8,1 16,1 24,1 8,0 16,0 23,0 21,0 39,-5 54,-16 16,-10 23,-32 23,-66l0 -654 427 0 0 735 68 0 0 221 -137 0 0 -98 -344 0 0 98 -138 0 0 -221zm259 -91c0,36 -4,67 -11,91l168 0 0 -613 -157 0 0 522zm415 -644l135 0 0 858 -135 0 0 -858zm277 0l135 0 0 858 -135 0 0 -858zm32 -167l0 125 -125 0 0 -125 125 0zm196 0l0 125 -125 0 0 -125 125 0zm253 167c70,0 121,16 152,49 32,32 47,82 47,148l0 31c0,44 -6,80 -20,109 -14,28 -36,50 -67,64 37,13 63,36 78,68 15,31 23,70 23,115l0 70c0,66 -17,117 -52,152 -34,34 -85,52 -153,52l-212 0 0 -858 204 0zm-69 472l0 263 77 0c23,0 41,-6 52,-18 12,-13 18,-35 18,-66l0 -75c0,-40 -7,-68 -20,-82 -14,-15 -36,-22 -67,-22l-60 0zm0 -350l0 227 53 0c25,0 45,-6 59,-20 15,-13 22,-36 22,-71l0 -47c0,-31 -6,-54 -17,-68 -11,-14 -28,-21 -52,-21l-65 0z"/>
   </g>
  </g>
  <path class="fil2" d="M3393 2225l-36 68 0 231 -118 0 0 -750 118 0 0 326 156 -326 116 0 -164 334 164 416 -121 0 -115 -299zm670 299l-119 0 -20 -136 -145 0 -20 136 -109 0 120 -750 173 0 120 750zm-269 -238l114 0 -57 -380 -57 380zm290 -512l365 0 0 107 -124 0 0 643 -118 0 0 -643 -123 0 0 -107zm536 316l162 0 0 107 -162 0 0 219 204 0 0 108 -322 0 0 -750 322 0 0 107 -204 0 0 209zm391 434l-118 0 0 -750 312 0 0 107 -194 0 0 643zm355 -173c0,27 5,46 16,57 11,11 26,17 45,17 18,0 33,-6 44,-17 11,-11 17,-30 17,-57l0 -405c0,-27 -6,-46 -17,-57 -11,-11 -26,-17 -44,-17 -19,0 -34,6 -45,17 -11,11 -16,30 -16,57l0 405zm-118 -397c0,-61 15,-108 46,-140 31,-33 75,-49 133,-49 58,0 102,16 133,49 30,32 46,79 46,140l0 390c0,60 -16,107 -46,139 -31,33 -75,49 -133,49 -58,0 -102,-16 -133,-49 -31,-32 -46,-79 -46,-139l0 -390zm606 -180c59,0 104,15 132,47 29,31 44,77 44,138l0 97c0,61 -15,107 -44,139 -28,31 -73,47 -132,47l-56 0 0 282 -117 0 0 -750 173 0zm-56 107l0 254 56 0c19,0 33,-5 43,-15 10,-10 15,-29 15,-56l0 -113c0,-27 -5,-45 -15,-55 -10,-10 -24,-15 -43,-15l-56 0zm285 -107l118 0 0 750 -118 0 0 -750zm325 750l-121 0 0 -750 105 0 0 449 121 -449 148 0 0 750 -106 0 0 -544 -147 544zm197 -880l0 88 -259 0 0 -88 259 0z"/>
 </g>
</svg>
