<?xml version="1.0" encoding="UTF-8"?>
<!DOCTYPE svg PUBLIC "-//W3C//DTD SVG 1.1//EN" "http://www.w3.org/Graphics/SVG/1.1/DTD/svg11.dtd">
<!-- Creator: CorelDRAW X7 -->
<svg xmlns="http://www.w3.org/2000/svg" xml:space="preserve" width="58.5389mm" height="15.1898mm" version="1.1" style="shape-rendering:geometricPrecision; text-rendering:geometricPrecision; image-rendering:optimizeQuality; fill-rule:evenodd; clip-rule:evenodd"
viewBox="0 0 5182 1345"
 xmlns:xlink="http://www.w3.org/1999/xlink">
 <defs>
  <style type="text/css">
   <![CDATA[
    .str0 {stroke:#2B2A29;stroke-width:44.264;stroke-linecap:round;stroke-linejoin:round}
    .fil0 {fill:none;fill-rule:nonzero}
    .fil1 {fill:#2B2A29;fill-rule:nonzero}
   ]]>
  </style>
 </defs>
 <g id="Слой_x0020_1">
  <metadata id="CorelCorpID_0Corel-Layer"/>
  <g>
   <path class="fil0 str0" d="M135 327c-10,-11 -15,-23 -15,-38 0,-15 5,-28 15,-38 10,-11 23,-16 38,-16 15,0 27,5 38,16 10,10 16,23 16,38 0,15 -6,27 -16,38 -11,11 -23,16 -38,16 -15,0 -28,-5 -38,-16zm1176 0c-10,-11 -15,-23 -15,-38 0,-15 5,-28 15,-38 11,-11 23,-16 38,-16 15,0 28,5 38,16 11,10 16,23 16,38 0,15 -5,27 -16,38 -10,11 -23,16 -38,16 -15,0 -27,-5 -38,-16zm777 224l0 -524 110 0c38,0 65,9 82,27 17,19 25,47 25,85l0 29c0,30 -5,54 -16,71 -10,16 -28,27 -53,33 52,10 79,48 79,112l0 46c0,81 -39,121 -115,121l-112 0zm34 -31l78 0c28,0 48,-8 61,-23 13,-15 19,-38 19,-68l0 -47c0,-33 -7,-57 -22,-71 -15,-14 -39,-21 -71,-21l-65 0 0 230zm0 -262l58 0c33,0 56,-6 70,-17 13,-12 20,-34 20,-66l0 -33c0,-29 -5,-50 -16,-64 -11,-13 -30,-20 -57,-20l-75 0 0 200zm395 69c-10,-11 -15,-23 -15,-38 0,-15 5,-28 15,-38 11,-11 23,-16 38,-16 15,0 28,5 38,16 11,10 16,23 16,38 0,15 -5,27 -16,38 -10,11 -23,16 -38,16 -15,0 -27,-5 -38,-16zm713 0c-11,-11 -16,-23 -16,-38 0,-15 5,-28 16,-38 10,-11 23,-16 37,-16 15,0 28,5 39,16 10,10 15,23 15,38 0,15 -5,27 -15,38 -11,11 -24,16 -39,16 -14,0 -27,-5 -37,-16zm922 0c-10,-11 -15,-23 -15,-38 0,-15 5,-28 15,-38 11,-11 23,-16 38,-16 15,0 28,5 38,16 11,10 16,23 16,38 0,15 -5,27 -16,38 -10,11 -23,16 -38,16 -15,0 -27,-5 -38,-16zm-3858 224l115 -525 50 0 117 525 -35 0 -26 -116 -163 0 -26 116 -32 0zm64 -146l151 0 -76 -338 -75 338zm288 -276l0 -30c24,-1 43,-9 57,-22 14,-13 25,-30 32,-51l27 0 0 525 -34 0 0 -466c-20,27 -48,41 -82,44zm185 422l115 -525 50 0 117 525 -35 0 -26 -116 -163 0 -26 116 -32 0zm64 -146l150 0 -75 -338 -75 338zm699 146l0 -524 110 0c38,0 66,9 82,27 17,19 25,47 25,85l0 29c0,30 -5,54 -16,71 -10,16 -28,27 -53,33 52,10 79,48 79,112l0 46c0,81 -38,121 -115,121l-112 0zm34 -31l78 0c28,0 49,-8 61,-23 13,-15 19,-38 19,-68l0 -47c0,-33 -7,-57 -22,-71 -15,-14 -39,-21 -71,-21l-65 0 0 230zm0 -262l59 0c32,0 55,-6 69,-17 14,-12 21,-34 21,-66l0 -33c0,-29 -6,-50 -17,-64 -11,-13 -30,-20 -57,-20l-75 0 0 200zm267 -129l0 -30c24,-1 43,-9 57,-22 14,-13 25,-30 32,-51l27 0 0 525 -34 0 0 -466c-20,27 -47,41 -82,44zm905 422l0 -524 110 0c38,0 66,9 82,27 17,19 25,47 25,85l0 29c0,30 -5,54 -15,71 -11,16 -29,27 -54,33 53,10 79,48 79,112l0 46c0,81 -38,121 -115,121l-112 0zm34 -31l78 0c28,0 49,-8 61,-23 13,-15 19,-38 19,-68l0 -47c0,-33 -7,-57 -22,-71 -15,-14 -38,-21 -70,-21l-66 0 0 230zm0 -262l59 0c32,0 55,-6 69,-17 14,-12 21,-34 21,-66l0 -33c0,-29 -6,-50 -17,-64 -11,-13 -30,-20 -57,-20l-75 0 0 200zm678 293l0 -524 110 0c39,0 66,9 83,27 16,19 25,47 25,85l0 29c0,30 -6,54 -16,71 -10,16 -28,27 -54,33 53,10 79,48 79,112l0 46c0,81 -38,121 -114,121l-113 0zm35 -31l78 0c28,0 48,-8 61,-23 12,-15 19,-38 19,-68l0 -47c0,-33 -8,-57 -23,-71 -15,-14 -38,-21 -70,-21l-65 0 0 230zm0 -262l58 0c32,0 55,-6 69,-17 14,-12 21,-34 21,-66l0 -33c0,-29 -5,-50 -16,-64 -11,-13 -30,-20 -57,-20l-75 0 0 200zm267 -129l0 -30c24,-1 43,-9 57,-22 14,-13 24,-30 32,-51l27 0 0 525 -35 0 0 -466c-20,27 -47,41 -81,44zm619 294l0 -268c0,-40 9,-73 28,-97 18,-24 47,-36 85,-36 38,0 67,12 85,36 19,24 28,57 28,97l0 43 -33 0 0 -46c0,-30 -6,-54 -19,-72 -13,-18 -33,-26 -60,-26 -28,0 -48,8 -61,26 -12,18 -19,42 -19,72l0 274c0,30 7,54 19,71 13,18 33,27 61,27 27,0 47,-9 60,-27 13,-17 19,-41 19,-71l0 -63 33 0 0 60c0,41 -9,73 -28,97 -18,24 -47,36 -85,36 -38,0 -67,-12 -85,-36 -19,-24 -28,-56 -28,-97zm300 -294l0 -30c24,-1 43,-9 57,-22 14,-13 25,-30 32,-51l27 0 0 525 -34 0 0 -466c-20,27 -48,41 -82,44zm190 294l0 -268c0,-40 9,-73 28,-97 19,-24 47,-36 85,-36 39,0 67,12 86,36 18,24 27,57 27,97l0 43 -32 0 0 -46c0,-30 -7,-54 -19,-72 -13,-18 -33,-26 -61,-26 -28,0 -48,8 -60,26 -13,18 -19,42 -19,72l0 274c0,30 6,54 19,71 12,18 32,27 60,27 28,0 48,-9 61,-27 12,-17 19,-41 19,-71l0 -63 32 0 0 60c0,41 -9,73 -27,97 -19,24 -47,36 -86,36 -38,0 -66,-12 -85,-36 -19,-24 -28,-56 -28,-97z"/>
   <path id="1" class="fil1" d="M135 327c-10,-11 -15,-23 -15,-38 0,-15 5,-28 15,-38 10,-11 23,-16 38,-16 15,0 27,5 38,16 10,10 16,23 16,38 0,15 -6,27 -16,38 -11,11 -23,16 -38,16 -15,0 -28,-5 -38,-16zm1176 0c-10,-11 -15,-23 -15,-38 0,-15 5,-28 15,-38 11,-11 23,-16 38,-16 15,0 28,5 38,16 11,10 16,23 16,38 0,15 -5,27 -16,38 -10,11 -23,16 -38,16 -15,0 -27,-5 -38,-16zm777 224l0 -524 110 0c38,0 65,9 82,27 17,19 25,47 25,85l0 29c0,30 -5,54 -16,71 -10,16 -28,27 -53,33 52,10 79,48 79,112l0 46c0,81 -39,121 -115,121l-112 0zm34 -31l78 0c28,0 48,-8 61,-23 13,-15 19,-38 19,-68l0 -47c0,-33 -7,-57 -22,-71 -15,-14 -39,-21 -71,-21l-65 0 0 230zm0 -262l58 0c33,0 56,-6 70,-17 13,-12 20,-34 20,-66l0 -33c0,-29 -5,-50 -16,-64 -11,-13 -30,-20 -57,-20l-75 0 0 200zm395 69c-10,-11 -15,-23 -15,-38 0,-15 5,-28 15,-38 11,-11 23,-16 38,-16 15,0 28,5 38,16 11,10 16,23 16,38 0,15 -5,27 -16,38 -10,11 -23,16 -38,16 -15,0 -27,-5 -38,-16zm713 0c-11,-11 -16,-23 -16,-38 0,-15 5,-28 16,-38 10,-11 23,-16 37,-16 15,0 28,5 39,16 10,10 15,23 15,38 0,15 -5,27 -15,38 -11,11 -24,16 -39,16 -14,0 -27,-5 -37,-16zm922 0c-10,-11 -15,-23 -15,-38 0,-15 5,-28 15,-38 11,-11 23,-16 38,-16 15,0 28,5 38,16 11,10 16,23 16,38 0,15 -5,27 -16,38 -10,11 -23,16 -38,16 -15,0 -27,-5 -38,-16zm-3858 224l115 -525 50 0 117 525 -35 0 -26 -116 -163 0 -26 116 -32 0zm64 -146l151 0 -76 -338 -75 338zm288 -276l0 -30c24,-1 43,-9 57,-22 14,-13 25,-30 32,-51l27 0 0 525 -34 0 0 -466c-20,27 -48,41 -82,44zm185 422l115 -525 50 0 117 525 -35 0 -26 -116 -163 0 -26 116 -32 0zm64 -146l150 0 -75 -338 -75 338zm699 146l0 -524 110 0c38,0 66,9 82,27 17,19 25,47 25,85l0 29c0,30 -5,54 -16,71 -10,16 -28,27 -53,33 52,10 79,48 79,112l0 46c0,81 -38,121 -115,121l-112 0zm34 -31l78 0c28,0 49,-8 61,-23 13,-15 19,-38 19,-68l0 -47c0,-33 -7,-57 -22,-71 -15,-14 -39,-21 -71,-21l-65 0 0 230zm0 -262l59 0c32,0 55,-6 69,-17 14,-12 21,-34 21,-66l0 -33c0,-29 -6,-50 -17,-64 -11,-13 -30,-20 -57,-20l-75 0 0 200zm267 -129l0 -30c24,-1 43,-9 57,-22 14,-13 25,-30 32,-51l27 0 0 525 -34 0 0 -466c-20,27 -47,41 -82,44zm905 422l0 -524 110 0c38,0 66,9 82,27 17,19 25,47 25,85l0 29c0,30 -5,54 -15,71 -11,16 -29,27 -54,33 53,10 79,48 79,112l0 46c0,81 -38,121 -115,121l-112 0zm34 -31l78 0c28,0 49,-8 61,-23 13,-15 19,-38 19,-68l0 -47c0,-33 -7,-57 -22,-71 -15,-14 -38,-21 -70,-21l-66 0 0 230zm0 -262l59 0c32,0 55,-6 69,-17 14,-12 21,-34 21,-66l0 -33c0,-29 -6,-50 -17,-64 -11,-13 -30,-20 -57,-20l-75 0 0 200zm678 293l0 -524 110 0c39,0 66,9 83,27 16,19 25,47 25,85l0 29c0,30 -6,54 -16,71 -10,16 -28,27 -54,33 53,10 79,48 79,112l0 46c0,81 -38,121 -114,121l-113 0zm35 -31l78 0c28,0 48,-8 61,-23 12,-15 19,-38 19,-68l0 -47c0,-33 -8,-57 -23,-71 -15,-14 -38,-21 -70,-21l-65 0 0 230zm0 -262l58 0c32,0 55,-6 69,-17 14,-12 21,-34 21,-66l0 -33c0,-29 -5,-50 -16,-64 -11,-13 -30,-20 -57,-20l-75 0 0 200zm267 -129l0 -30c24,-1 43,-9 57,-22 14,-13 24,-30 32,-51l27 0 0 525 -35 0 0 -466c-20,27 -47,41 -81,44zm619 294l0 -268c0,-40 9,-73 28,-97 18,-24 47,-36 85,-36 38,0 67,12 85,36 19,24 28,57 28,97l0 43 -33 0 0 -46c0,-30 -6,-54 -19,-72 -13,-18 -33,-26 -60,-26 -28,0 -48,8 -61,26 -12,18 -19,42 -19,72l0 274c0,30 7,54 19,71 13,18 33,27 61,27 27,0 47,-9 60,-27 13,-17 19,-41 19,-71l0 -63 33 0 0 60c0,41 -9,73 -28,97 -18,24 -47,36 -85,36 -38,0 -67,-12 -85,-36 -19,-24 -28,-56 -28,-97zm300 -294l0 -30c24,-1 43,-9 57,-22 14,-13 25,-30 32,-51l27 0 0 525 -34 0 0 -466c-20,27 -48,41 -82,44zm190 294l0 -268c0,-40 9,-73 28,-97 19,-24 47,-36 85,-36 39,0 67,12 86,36 18,24 27,57 27,97l0 43 -32 0 0 -46c0,-30 -7,-54 -19,-72 -13,-18 -33,-26 -61,-26 -28,0 -48,8 -60,26 -13,18 -19,42 -19,72l0 274c0,30 6,54 19,71 12,18 32,27 60,27 28,0 48,-9 61,-27 12,-17 19,-41 19,-71l0 -63 32 0 0 60c0,41 -9,73 -27,97 -19,24 -47,36 -86,36 -38,0 -66,-12 -85,-36 -19,-24 -28,-56 -28,-97z"/>
  </g>
  <g>
   <path class="fil0 str0" d="M38 1094c-11,-11 -16,-24 -16,-38 0,-15 5,-28 16,-38 10,-11 22,-16 37,-16 15,0 28,5 39,16 10,10 15,23 15,38 0,14 -5,27 -15,38 -11,10 -24,16 -39,16 -15,0 -27,-6 -37,-16zm282 224l0 -525 115 0c39,0 68,12 88,36 19,23 29,55 29,95l0 264c0,40 -10,72 -29,95 -20,23 -49,35 -88,35l-115 0zm35 -31l80 0c28,0 48,-9 62,-26 13,-18 20,-41 20,-72l0 -266c0,-31 -7,-55 -20,-72 -14,-17 -35,-26 -62,-26l-80 0 0 462zm464 31l0 -525 115 0c39,0 68,12 88,36 19,23 29,55 29,95l0 264c0,40 -10,72 -29,95 -20,23 -49,35 -88,35l-115 0zm34 -31l81 0c28,0 48,-9 62,-26 13,-18 20,-41 20,-72l0 -266c0,-31 -7,-55 -20,-72 -14,-17 -35,-26 -62,-26l-81 0 0 462zm401 -193c-10,-11 -15,-24 -15,-38 0,-15 5,-28 15,-38 10,-11 23,-16 38,-16 15,0 27,5 38,16 10,10 16,23 16,38 0,14 -6,27 -16,38 -11,10 -23,16 -38,16 -15,0 -28,-6 -38,-16zm282 224l0 -525 116 0c39,0 68,12 87,36 19,23 29,55 29,95l0 264c0,40 -10,72 -29,95 -19,23 -48,35 -87,35l-116 0zm35 -31l80 0c28,0 49,-9 62,-26 14,-18 21,-41 21,-72l0 -266c0,-31 -7,-55 -21,-72 -14,-17 -34,-26 -62,-26l-80 0 0 462zm254 31l0 -525 206 0 0 32 -172 0 0 211 143 0 0 32 -143 0 0 219 172 0 0 31 -206 0zm409 -224c-10,-11 -15,-24 -15,-38 0,-15 5,-28 15,-38 11,-11 23,-16 38,-16 15,0 28,5 38,16 11,10 16,23 16,38 0,14 -5,27 -16,38 -10,10 -23,16 -38,16 -15,0 -27,-6 -38,-16zm283 224l0 -525 110 0c38,0 66,10 82,28 17,19 25,47 25,84l0 30c0,30 -5,53 -16,70 -10,17 -28,28 -53,34 52,10 79,47 79,112l0 46c0,81 -38,121 -115,121l-112 0zm34 -31l78 0c28,0 49,-8 61,-23 13,-15 19,-38 19,-68l0 -47c0,-34 -7,-57 -22,-71 -15,-14 -39,-21 -71,-21l-65 0 0 230zm0 -262l59 0c32,0 55,-6 69,-18 14,-11 21,-33 21,-65l0 -34c0,-29 -6,-50 -17,-63 -11,-13 -30,-20 -57,-20l-75 0 0 200zm249 293l0 -525 206 0 0 32 -171 0 0 211 142 0 0 32 -142 0 0 219 171 0 0 31 -206 0zm409 -224c-10,-11 -15,-24 -15,-38 0,-15 5,-28 15,-38 11,-11 23,-16 38,-16 15,0 28,5 38,16 11,10 16,23 16,38 0,14 -5,27 -16,38 -10,10 -23,16 -38,16 -15,0 -27,-6 -38,-16zm281 96l0 -268c0,-41 9,-73 27,-97 19,-24 47,-36 86,-36 38,0 67,12 85,36 19,24 28,56 28,97l0 43 -33 0 0 -46c0,-30 -6,-54 -19,-72 -13,-18 -33,-27 -60,-27 -28,0 -48,9 -61,27 -13,18 -19,42 -19,72l0 273c0,31 6,54 19,72 13,18 33,26 61,26 27,0 47,-8 60,-26 13,-18 19,-41 19,-72l0 -62 33 0 0 60c0,40 -9,73 -28,96 -18,25 -47,37 -85,37 -39,0 -67,-12 -86,-37 -18,-23 -27,-56 -27,-96zm492 128l0 -525 206 0 0 32 -171 0 0 211 142 0 0 32 -142 0 0 219 171 0 0 31 -206 0zm410 -224c-11,-11 -16,-24 -16,-38 0,-15 5,-28 16,-38 10,-11 23,-16 37,-16 15,0 28,5 39,16 10,10 15,23 15,38 0,14 -5,27 -15,38 -11,10 -24,16 -39,16 -14,0 -27,-6 -37,-16zm280 96l0 -268c0,-41 9,-73 28,-97 18,-24 47,-36 85,-36 38,0 67,12 85,36 19,24 28,56 28,97l0 43 -33 0 0 -46c0,-30 -6,-54 -19,-72 -12,-18 -33,-27 -60,-27 -28,0 -48,9 -61,27 -12,18 -19,42 -19,72l0 273c0,31 7,54 19,72 13,18 33,26 61,26 27,0 48,-8 60,-26 13,-18 19,-41 19,-72l0 -62 33 0 0 60c0,40 -9,73 -28,96 -18,25 -47,37 -85,37 -38,0 -67,-12 -85,-37 -19,-23 -28,-56 -28,-96zm282 128l0 -525 206 0 0 32 -171 0 0 211 142 0 0 32 -142 0 0 219 171 0 0 31 -206 0zm-4327 -422l0 -30c24,-2 43,-9 57,-22 14,-13 24,-30 32,-51l27 0 0 525 -35 0 0 -466c-20,26 -47,41 -81,44zm3163 0l0 -30c24,-2 43,-9 57,-22 14,-13 24,-30 32,-51l27 0 0 525 -35 0 0 -466c-19,26 -47,41 -81,44z"/>
   <path id="1" class="fil1" d="M38 1094c-11,-11 -16,-24 -16,-38 0,-15 5,-28 16,-38 10,-11 22,-16 37,-16 15,0 28,5 39,16 10,10 15,23 15,38 0,14 -5,27 -15,38 -11,10 -24,16 -39,16 -15,0 -27,-6 -37,-16zm282 224l0 -525 115 0c39,0 68,12 88,36 19,23 29,55 29,95l0 264c0,40 -10,72 -29,95 -20,23 -49,35 -88,35l-115 0zm35 -31l80 0c28,0 48,-9 62,-26 13,-18 20,-41 20,-72l0 -266c0,-31 -7,-55 -20,-72 -14,-17 -35,-26 -62,-26l-80 0 0 462zm464 31l0 -525 115 0c39,0 68,12 88,36 19,23 29,55 29,95l0 264c0,40 -10,72 -29,95 -20,23 -49,35 -88,35l-115 0zm34 -31l81 0c28,0 48,-9 62,-26 13,-18 20,-41 20,-72l0 -266c0,-31 -7,-55 -20,-72 -14,-17 -35,-26 -62,-26l-81 0 0 462zm401 -193c-10,-11 -15,-24 -15,-38 0,-15 5,-28 15,-38 10,-11 23,-16 38,-16 15,0 27,5 38,16 10,10 16,23 16,38 0,14 -6,27 -16,38 -11,10 -23,16 -38,16 -15,0 -28,-6 -38,-16zm282 224l0 -525 116 0c39,0 68,12 87,36 19,23 29,55 29,95l0 264c0,40 -10,72 -29,95 -19,23 -48,35 -87,35l-116 0zm35 -31l80 0c28,0 49,-9 62,-26 14,-18 21,-41 21,-72l0 -266c0,-31 -7,-55 -21,-72 -14,-17 -34,-26 -62,-26l-80 0 0 462zm254 31l0 -525 206 0 0 32 -172 0 0 211 143 0 0 32 -143 0 0 219 172 0 0 31 -206 0zm409 -224c-10,-11 -15,-24 -15,-38 0,-15 5,-28 15,-38 11,-11 23,-16 38,-16 15,0 28,5 38,16 11,10 16,23 16,38 0,14 -5,27 -16,38 -10,10 -23,16 -38,16 -15,0 -27,-6 -38,-16zm283 224l0 -525 110 0c38,0 66,10 82,28 17,19 25,47 25,84l0 30c0,30 -5,53 -16,70 -10,17 -28,28 -53,34 52,10 79,47 79,112l0 46c0,81 -38,121 -115,121l-112 0zm34 -31l78 0c28,0 49,-8 61,-23 13,-15 19,-38 19,-68l0 -47c0,-34 -7,-57 -22,-71 -15,-14 -39,-21 -71,-21l-65 0 0 230zm0 -262l59 0c32,0 55,-6 69,-18 14,-11 21,-33 21,-65l0 -34c0,-29 -6,-50 -17,-63 -11,-13 -30,-20 -57,-20l-75 0 0 200zm249 293l0 -525 206 0 0 32 -171 0 0 211 142 0 0 32 -142 0 0 219 171 0 0 31 -206 0zm409 -224c-10,-11 -15,-24 -15,-38 0,-15 5,-28 15,-38 11,-11 23,-16 38,-16 15,0 28,5 38,16 11,10 16,23 16,38 0,14 -5,27 -16,38 -10,10 -23,16 -38,16 -15,0 -27,-6 -38,-16zm281 96l0 -268c0,-41 9,-73 27,-97 19,-24 47,-36 86,-36 38,0 67,12 85,36 19,24 28,56 28,97l0 43 -33 0 0 -46c0,-30 -6,-54 -19,-72 -13,-18 -33,-27 -60,-27 -28,0 -48,9 -61,27 -13,18 -19,42 -19,72l0 273c0,31 6,54 19,72 13,18 33,26 61,26 27,0 47,-8 60,-26 13,-18 19,-41 19,-72l0 -62 33 0 0 60c0,40 -9,73 -28,96 -18,25 -47,37 -85,37 -39,0 -67,-12 -86,-37 -18,-23 -27,-56 -27,-96zm492 128l0 -525 206 0 0 32 -171 0 0 211 142 0 0 32 -142 0 0 219 171 0 0 31 -206 0zm410 -224c-11,-11 -16,-24 -16,-38 0,-15 5,-28 16,-38 10,-11 23,-16 37,-16 15,0 28,5 39,16 10,10 15,23 15,38 0,14 -5,27 -15,38 -11,10 -24,16 -39,16 -14,0 -27,-6 -37,-16zm280 96l0 -268c0,-41 9,-73 28,-97 18,-24 47,-36 85,-36 38,0 67,12 85,36 19,24 28,56 28,97l0 43 -33 0 0 -46c0,-30 -6,-54 -19,-72 -12,-18 -33,-27 -60,-27 -28,0 -48,9 -61,27 -12,18 -19,42 -19,72l0 273c0,31 7,54 19,72 13,18 33,26 61,26 27,0 48,-8 60,-26 13,-18 19,-41 19,-72l0 -62 33 0 0 60c0,40 -9,73 -28,96 -18,25 -47,37 -85,37 -38,0 -67,-12 -85,-37 -19,-23 -28,-56 -28,-96zm282 128l0 -525 206 0 0 32 -171 0 0 211 142 0 0 32 -142 0 0 219 171 0 0 31 -206 0zm-4327 -422l0 -30c24,-2 43,-9 57,-22 14,-13 24,-30 32,-51l27 0 0 525 -35 0 0 -466c-20,26 -47,41 -81,44zm3163 0l0 -30c24,-2 43,-9 57,-22 14,-13 24,-30 32,-51l27 0 0 525 -35 0 0 -466c-19,26 -47,41 -81,44z"/>
  </g>
 </g>
</svg>
